<svg width="48" height="48" viewBox="0 0 48 48" fill="none" xmlns="http://www.w3.org/2000/svg">
<path fill-rule="evenodd" clip-rule="evenodd" d="M12.7071 20.707C12.3166 20.3165 12.3166 19.6833 12.7071 19.2928L14.1137 17.8863C14.5039 17.496 15.1365 17.4957 15.5271 17.8855L24 26.3399L32.4729 17.8855C32.8635 17.4957 33.4961 17.496 33.8863 17.8863L35.2929 19.2928C35.6834 19.6833 35.6834 20.3165 35.2929 20.707L24 31.9999L12.7071 20.707Z" fill="#C2D1D9"/>
<mask id="mask0_4372_1187" style="mask-type:alpha" maskUnits="userSpaceOnUse" x="12" y="17" width="24" height="15">
<path fill-rule="evenodd" clip-rule="evenodd" d="M12.7071 20.707C12.3166 20.3165 12.3166 19.6833 12.7071 19.2928L14.1137 17.8863C14.5039 17.496 15.1365 17.4957 15.5271 17.8855L24 26.3399L32.4729 17.8855C32.8635 17.4957 33.4961 17.496 33.8863 17.8863L35.2929 19.2928C35.6834 19.6833 35.6834 20.3165 35.2929 20.707L24 31.9999L12.7071 20.707Z" fill="white"/>
</mask>
<g mask="url(#mask0_4372_1187)">
<rect y="48" width="48" height="48" transform="rotate(-90 0 48)" fill="#D66600"/>
</g>
</svg>
