<svg aria-hidden="true" style="position: absolute; width: 0; height: 0; overflow: hidden;" version="1.1" xmlns="http://www.w3.org/2000/svg" xmlns:xlink="http://www.w3.org/1999/xlink">
<defs>
<symbol id="icon-admin-burger-menu" viewBox="0 0 32 32">
<path d="M5.333 17.333c0.736 0 1.333-0.597 1.333-1.333s-0.597-1.333-1.333-1.333-1.333 0.597-1.333 1.333c0 0.736 0.597 1.333 1.333 1.333z"></path>
<path d="M26.745 14.667h-16.16c-0.692 0-1.253 0.561-1.253 1.253v0.16c0 0.692 0.561 1.253 1.253 1.253h16.16c0.692 0 1.253-0.561 1.253-1.253v-0.16c0-0.692-0.561-1.253-1.253-1.253z"></path>
<path d="M26.747 21.333h-21.493c-0.692 0-1.253 0.561-1.253 1.253v0.16c0 0.692 0.561 1.253 1.253 1.253h21.493c0.692 0 1.253-0.561 1.253-1.253v-0.16c0-0.692-0.561-1.253-1.253-1.253z"></path>
<path d="M26.747 8h-21.493c-0.692 0-1.253 0.561-1.253 1.253v0.16c0 0.692 0.561 1.253 1.253 1.253h21.493c0.692 0 1.253-0.561 1.253-1.253v-0.16c0-0.692-0.561-1.253-1.253-1.253z"></path>
</symbol>
<symbol id="icon-arrow-down" viewBox="0 0 32 32">
<path d="M5.897 10.429c-0.127-0.12-0.277-0.214-0.441-0.277s-0.338-0.092-0.513-0.087c-0.175 0.005-0.347 0.044-0.507 0.116s-0.304 0.174-0.424 0.301c-0.12 0.127-0.214 0.277-0.277 0.441s-0.092 0.338-0.087 0.513c0.005 0.175 0.044 0.347 0.116 0.507s0.174 0.304 0.301 0.424l12 11.333c0.248 0.234 0.575 0.364 0.916 0.364s0.668-0.13 0.916-0.364l12.001-11.333c0.13-0.12 0.235-0.264 0.309-0.424s0.115-0.334 0.122-0.511c0.006-0.177-0.023-0.353-0.085-0.518s-0.157-0.316-0.278-0.445c-0.121-0.128-0.267-0.231-0.428-0.303s-0.335-0.111-0.512-0.114c-0.177-0.004-0.352 0.027-0.517 0.092s-0.314 0.161-0.441 0.284l-11.087 10.469-11.084-10.469z"></path>
</symbol>
<symbol id="icon-arrow-left" viewBox="0 0 32 32">
<path d="M21.568 5.902c0.12-0.127 0.214-0.277 0.277-0.441s0.092-0.338 0.087-0.513c-0.005-0.175-0.044-0.347-0.116-0.507s-0.174-0.304-0.301-0.424c-0.127-0.12-0.277-0.214-0.441-0.277s-0.338-0.092-0.513-0.087c-0.175 0.005-0.347 0.044-0.507 0.116s-0.304 0.174-0.424 0.301l-11.333 12c-0.234 0.248-0.364 0.575-0.364 0.916s0.13 0.668 0.364 0.916l11.333 12.001c0.119 0.13 0.264 0.235 0.424 0.309s0.334 0.115 0.511 0.122c0.177 0.006 0.353-0.023 0.518-0.085s0.317-0.157 0.445-0.278c0.128-0.121 0.231-0.267 0.303-0.428s0.111-0.335 0.114-0.512c0.004-0.177-0.027-0.352-0.092-0.517s-0.161-0.314-0.284-0.441l-10.469-11.087 10.469-11.084z"></path>
</symbol>
<symbol id="icon-arrow-right" viewBox="0 0 32 32">
<path d="M10.364 28.15c-0.12 0.127-0.214 0.277-0.277 0.441s-0.092 0.338-0.087 0.513c0.005 0.175 0.044 0.347 0.116 0.507s0.174 0.304 0.301 0.424c0.127 0.12 0.277 0.214 0.441 0.277s0.338 0.092 0.513 0.087 0.347-0.044 0.507-0.116c0.16-0.072 0.304-0.174 0.424-0.301l11.333-12c0.234-0.248 0.364-0.575 0.364-0.916s-0.13-0.668-0.364-0.916l-11.333-12.001c-0.119-0.13-0.264-0.235-0.424-0.309s-0.334-0.115-0.511-0.121c-0.177-0.006-0.353 0.023-0.518 0.085s-0.317 0.157-0.445 0.278c-0.128 0.121-0.231 0.267-0.303 0.428s-0.111 0.335-0.114 0.512c-0.004 0.177 0.027 0.352 0.092 0.517s0.161 0.314 0.284 0.441l10.469 11.087-10.469 11.084z"></path>
</symbol>
<symbol id="icon-account" viewBox="0 0 32 32">
<path d="M5.335 8h-2.667v18.667c0 1.467 1.2 2.667 2.667 2.667h18.667v-2.667h-18.667v-18.667zM26.669 2.667h-16c-1.467 0-2.667 1.2-2.667 2.667v16c0 1.467 1.2 2.667 2.667 2.667h16c1.467 0 2.667-1.2 2.667-2.667v-16c0-1.467-1.2-2.667-2.667-2.667zM18.669 5.333c2.213 0 4 1.787 4 4s-1.787 4-4 4c-2.213 0-4-1.787-4-4s1.787-4 4-4zM26.669 21.333h-16v-2c0-2.653 5.333-4 8-4s8 1.347 8 4v2z"></path>
</symbol>
<symbol id="icon-achievements" viewBox="0 0 32 32">
<path d="M19.121 18.676l1.419 0.149v11.55l-3.92-4.185v-6.659l1.138 0.556 1.362-1.411zM12.874 18.676l-1.42 0.149v11.55l3.919-4.185v-6.659l-1.138 0.556-1.361-1.411zM23.623 11.44l0.459 1.598-1.378 0.929-0.116 1.661-1.613 0.402-0.675 1.52-1.654-0.175-1.155 1.193-1.494-0.73-1.494 0.73-1.155-1.197-1.654 0.175-0.675-1.52-1.613-0.398-0.115-1.658-1.382-0.932 0.459-1.598-0.975-1.347 0.978-1.345-0.462-1.595 1.379-0.929 0.115-1.658 1.616-0.398 0.675-1.52 1.654 0.175 1.155-1.197 1.494 0.73 1.494-0.73 1.155 1.197 1.654-0.175 0.675 1.52 1.613 0.402 0.116 1.658 1.378 0.929-0.459 1.598 0.979 1.338-0.979 1.347zM20.547 10.092c0-0.893-0.265-1.766-0.761-2.508s-1.201-1.321-2.026-1.663c-0.825-0.342-1.733-0.431-2.609-0.257s-1.68 0.604-2.312 1.236c-0.631 0.631-1.061 1.436-1.236 2.312s-0.085 1.784 0.257 2.609c0.342 0.825 0.92 1.53 1.663 2.026s1.615 0.761 2.508 0.761c1.197-0.002 2.344-0.478 3.191-1.325s1.323-1.994 1.324-3.191zM16.032 6.825c-0.646 0-1.278 0.192-1.815 0.551s-0.956 0.869-1.204 1.466c-0.247 0.597-0.312 1.254-0.186 1.888s0.437 1.216 0.894 1.673c0.457 0.457 1.039 0.768 1.673 0.894s1.291 0.061 1.888-0.186c0.597-0.247 1.108-0.666 1.467-1.203s0.551-1.169 0.551-1.815c-0.003-0.866-0.348-1.695-0.96-2.307s-1.442-0.956-2.308-0.958v-0.002z"></path>
</symbol>
<symbol id="icon-close" viewBox="0 0 32 32">
<path d="M15.997 18.828l7.071 7.072c0.375 0.375 0.884 0.586 1.415 0.586s1.040-0.211 1.415-0.586c0.375-0.375 0.586-0.884 0.586-1.415s-0.211-1.039-0.586-1.415l-7.073-7.071 7.072-7.071c0.186-0.186 0.333-0.406 0.433-0.649s0.152-0.503 0.152-0.765c-0-0.263-0.052-0.523-0.152-0.765s-0.248-0.463-0.434-0.649c-0.186-0.186-0.406-0.333-0.649-0.433s-0.503-0.152-0.765-0.152c-0.263 0-0.523 0.052-0.765 0.152s-0.463 0.248-0.649 0.434l-7.069 7.071-7.071-7.071c-0.184-0.191-0.405-0.344-0.649-0.449s-0.506-0.16-0.772-0.163c-0.266-0.002-0.529 0.048-0.775 0.149s-0.469 0.249-0.657 0.437c-0.188 0.188-0.336 0.411-0.437 0.657s-0.151 0.509-0.149 0.775c0.002 0.266 0.057 0.528 0.162 0.772s0.257 0.465 0.448 0.649l7.073 7.072-7.072 7.071c-0.375 0.375-0.586 0.884-0.586 1.415s0.211 1.040 0.586 1.415 0.884 0.586 1.415 0.586c0.531 0 1.039-0.211 1.415-0.586l7.069-7.072z"></path>
</symbol>
<symbol id="icon-contacts" viewBox="0 0 32 32">
<path d="M2.667 28c-0.733 0-1.361-0.261-1.884-0.784s-0.784-1.15-0.783-1.883v-18.667c0-0.733 0.261-1.361 0.784-1.884s1.15-0.784 1.883-0.783h26.667c0.733 0 1.361 0.261 1.884 0.784s0.784 1.15 0.783 1.883v18.667c0 0.733-0.261 1.361-0.784 1.884s-1.15 0.784-1.883 0.783h-26.667zM21.2 25.333h8.133v-18.667h-26.667v18.667h0.133c0.933-1.667 2.222-2.972 3.867-3.917s3.422-1.417 5.333-1.416c1.911 0 3.689 0.472 5.333 1.417s2.933 2.25 3.867 3.916zM12 18.667c1.111 0 2.056-0.389 2.833-1.167s1.167-1.722 1.167-2.833c0-1.111-0.389-2.056-1.167-2.833s-1.722-1.167-2.833-1.167c-1.111 0-2.056 0.389-2.833 1.167s-1.167 1.722-1.167 2.833c0 1.111 0.389 2.056 1.167 2.833s1.722 1.167 2.833 1.167zM25.333 24l2.667-2.667-2-2.667h-2.2c-0.133-0.4-0.244-0.828-0.333-1.284s-0.133-0.917-0.133-1.383c0-0.467 0.044-0.916 0.133-1.349s0.2-0.872 0.333-1.317h2.2l2-2.667-2.667-2.667c-1.2 0.933-2.167 2.117-2.9 3.551s-1.1 2.917-1.1 4.449c0 1.533 0.367 3.017 1.1 4.451s1.7 2.617 2.9 3.549zM6.067 25.333h11.867c-0.756-0.844-1.65-1.5-2.684-1.967s-2.117-0.7-3.249-0.7c-1.133 0-2.211 0.233-3.233 0.7s-1.922 1.122-2.7 1.967zM12 16c-0.378 0-0.695-0.128-0.951-0.384s-0.384-0.572-0.383-0.949c0-0.378 0.128-0.695 0.384-0.951s0.572-0.384 0.949-0.383c0.378 0 0.695 0.128 0.951 0.384s0.384 0.572 0.383 0.949c0 0.378-0.128 0.695-0.384 0.951s-0.572 0.384-0.949 0.383z"></path>
</symbol>
<symbol id="icon-departments" viewBox="0 0 32 32">
<path d="M20.266 7.468c0 0.883-0.273 1.744-0.783 2.464s-1.23 1.266-2.062 1.56v3.086h4.266c1.131 0 2.216 0.45 3.017 1.25s1.249 1.885 1.249 3.017v1.664c0.949 0.336 1.749 0.996 2.259 1.864s0.696 1.889 0.525 2.881c-0.17 0.992-0.686 1.892-1.455 2.541s-1.744 1.005-2.751 1.005c-1.007 0-1.981-0.356-2.751-1.005s-1.285-1.549-1.455-2.541c-0.17-0.992 0.016-2.013 0.525-2.881s1.31-1.529 2.259-1.864v-1.664c0-0.377-0.15-0.739-0.416-1.006s-0.628-0.416-1.005-0.416h-11.377c-0.377 0-0.739 0.15-1.006 0.416s-0.416 0.628-0.416 1.006v1.664c0.949 0.336 1.749 0.996 2.259 1.864s0.696 1.889 0.525 2.881c-0.17 0.992-0.686 1.892-1.455 2.541s-1.744 1.005-2.751 1.005c-1.007 0-1.981-0.356-2.751-1.005s-1.285-1.549-1.455-2.541c-0.17-0.992 0.016-2.013 0.525-2.881s1.31-1.529 2.259-1.864v-1.664c0-1.132 0.449-2.217 1.25-3.017s1.885-1.25 3.017-1.25h4.266v-3.086c-0.738-0.26-1.39-0.719-1.885-1.325s-0.814-1.337-0.921-2.112c-0.108-0.775-0-1.565 0.31-2.283s0.813-1.337 1.452-1.789c0.639-0.452 1.389-0.72 2.17-0.774s1.561 0.108 2.256 0.467c0.695 0.36 1.278 0.903 1.684 1.572s0.622 1.436 0.622 2.218zM16 6.045c-0.377 0-0.739 0.15-1.006 0.417s-0.416 0.628-0.416 1.006c0 0.377 0.15 0.739 0.416 1.006s0.628 0.417 1.006 0.417c0.377 0 0.739-0.15 1.006-0.417s0.416-0.628 0.416-1.006-0.15-0.739-0.416-1.006c-0.267-0.267-0.628-0.417-1.006-0.417zM7.468 23.111c-0.377 0-0.739 0.15-1.006 0.416s-0.417 0.628-0.417 1.006c0 0.377 0.15 0.739 0.417 1.006s0.628 0.416 1.006 0.416c0.377 0 0.739-0.15 1.006-0.416s0.416-0.628 0.416-1.006c0-0.377-0.15-0.739-0.416-1.006s-0.628-0.416-1.006-0.416zM24.532 23.111c-0.377 0-0.739 0.15-1.005 0.416s-0.417 0.628-0.417 1.006 0.15 0.739 0.417 1.006c0.267 0.267 0.628 0.416 1.005 0.416s0.739-0.15 1.006-0.416 0.416-0.628 0.416-1.006c0-0.377-0.15-0.739-0.416-1.006s-0.628-0.416-1.006-0.416z"></path>
</symbol>
<symbol id="icon-edit" viewBox="0 0 32 32">
<path d="M25.319 2.683l4 4-3.049 3.051-4-4 3.049-3.051zM10.669 21.333h4l9.716-9.716-4-4-9.716 9.716v4z"></path>
<path d="M25.333 25.333h-14.456c-0.035 0-0.071 0.013-0.105 0.013-0.044 0-0.088-0.012-0.133-0.013h-3.972v-18.667h9.129l2.667-2.667h-11.796c-1.471 0-2.667 1.195-2.667 2.667v18.667c0 1.472 1.196 2.667 2.667 2.667h18.667c0.707 0 1.386-0.281 1.886-0.781s0.781-1.178 0.781-1.886v-11.557l-2.667 2.667v8.891z"></path>
</symbol>
<symbol id="logout" viewBox="0 0 32 32">
<path d="M13.453 20.787l1.88 1.88 6.667-6.667-6.667-6.667-1.88 1.88 3.44 3.453h-12.893v2.667h12.893l-3.44 3.453zM25.333 4h-18.667c-0.707 0-1.386 0.281-1.886 0.781s-0.781 1.178-0.781 1.886v5.333h2.667v-5.333h18.667v18.667h-18.667v-5.333h-2.667v5.333c0 0.707 0.281 1.386 0.781 1.886s1.178 0.781 1.886 0.781h18.667c1.467 0 2.667-1.2 2.667-2.667v-18.667c0-1.467-1.2-2.667-2.667-2.667z"></path>
</symbol>
<symbol id="icon-gallery" viewBox="0 0 32 32">
<path d="M3.998 25.333c-0.733 0-1.361-0.261-1.883-0.783s-0.783-1.15-0.784-1.884v-13.333c0-0.733 0.261-1.361 0.784-1.883s1.15-0.783 1.883-0.784h13.333c0.733 0 1.361 0.261 1.884 0.784s0.784 1.15 0.783 1.883v13.333c0 0.733-0.261 1.361-0.783 1.884s-1.15 0.784-1.884 0.783h-13.333zM23.998 14.667c-0.378 0-0.694-0.128-0.949-0.384s-0.383-0.572-0.384-0.949v-5.333c0-0.378 0.128-0.694 0.384-0.949s0.572-0.383 0.949-0.384h5.333c0.378 0 0.695 0.128 0.951 0.384s0.384 0.572 0.383 0.949v5.333c0 0.378-0.128 0.695-0.384 0.951s-0.572 0.384-0.949 0.383h-5.333zM25.331 12h2.667v-2.667h-2.667v2.667zM3.998 22.667h13.333v-13.333h-13.333v13.333zM5.331 20h10.667l-3.5-4.667-2.5 3.333-1.833-2.433-2.833 3.767zM23.998 25.333c-0.378 0-0.694-0.128-0.949-0.384s-0.383-0.572-0.384-0.949v-5.333c0-0.378 0.128-0.694 0.384-0.949s0.572-0.383 0.949-0.384h5.333c0.378 0 0.695 0.128 0.951 0.384s0.384 0.572 0.383 0.949v5.333c0 0.378-0.128 0.695-0.384 0.951s-0.572 0.384-0.949 0.383h-5.333zM25.331 22.667h2.667v-2.667h-2.667v2.667z"></path>
</symbol>
<symbol id="icon-news" viewBox="0 0 32 32">
<path d="M21.333 4c0.673-0 1.321 0.254 1.814 0.711s0.796 1.084 0.846 1.755l0.007 0.2v6.667h2c0.497 0 0.976 0.185 1.344 0.52s0.598 0.794 0.646 1.289l0.009 0.192v10c0 1.020-0.39 2.002-1.090 2.744s-1.657 1.189-2.676 1.249l-0.235 0.007h-17.333c-0.673 0-1.321-0.254-1.814-0.711s-0.795-1.084-0.846-1.755l-0.007-0.2v-20c-0-0.673 0.254-1.321 0.711-1.814s1.084-0.795 1.755-0.846l0.2-0.007h14.667zM25.333 16h-1.333v10.667c0.354 0 0.693-0.14 0.943-0.391s0.39-0.589 0.39-0.943v-9.333zM21.333 6.667h-14.667v20h14.667v-20zM14.667 17.333c0.34 0 0.667 0.131 0.914 0.364s0.396 0.552 0.416 0.891c0.020 0.339-0.090 0.673-0.309 0.934s-0.528 0.428-0.865 0.468l-0.156 0.009h-4c-0.34-0-0.667-0.131-0.914-0.364s-0.396-0.552-0.416-0.891c-0.020-0.339 0.090-0.673 0.309-0.934s0.528-0.428 0.865-0.468l0.156-0.009h4zM17.333 10.667c0.354 0 0.693 0.14 0.943 0.39s0.391 0.589 0.391 0.943c0 0.354-0.14 0.693-0.391 0.943s-0.589 0.39-0.943 0.39h-6.667c-0.354 0-0.693-0.14-0.943-0.39s-0.391-0.589-0.391-0.943c0-0.354 0.14-0.693 0.391-0.943s0.589-0.39 0.943-0.39h6.667z"></path>
</symbol>
<symbol id="icon-password" viewBox="0 0 32 32">
<path d="M20.29 3.201c-1.744 0-3.369 0.687-4.708 1.987-1.521 1.478-2.217 3.296-2.014 5.238 0.153 1.442 0.83 2.896 1.916 4.196l-7.534 7.32-1.364-1.326c-0.665-0.649-1.217-0.111-1.883 0.537l-0.649 0.662c-0.667 0.645-1.218 1.151-0.552 1.798l1.362 1.327-1.070 1.040c-0.159 0.153-0.284 0.335-0.37 0.535s-0.13 0.415-0.13 0.632 0.044 0.432 0.13 0.632c0.086 0.2 0.212 0.382 0.37 0.535 0.665 0.645 1.736 0.645 2.404 0l11.82-11.485c1.28 0.779 2.671 1.198 4.026 1.198 1.743 0 3.371-0.687 4.709-1.988 1.522-1.477 2.217-3.294 2.013-5.237-0.183-1.748-1.138-3.507-2.662-4.986-1.727-1.68-3.79-2.618-5.813-2.618zM20.355 5.283c1.448 0 2.951 0.72 4.253 1.988 1.158 1.121 1.88 2.425 2.014 3.691 0.138 1.317-0.339 2.571-1.396 3.597-0.948 0.919-2.052 1.387-3.247 1.387-1.448 0-2.949-0.721-4.254-1.987-1.156-1.124-1.879-2.425-2.013-3.691-0.137-1.317 0.338-2.57 1.397-3.597 0.948-0.919 2.053-1.388 3.247-1.388z"></path>
</symbol>
<symbol id="icon-plus" viewBox="0 0 32 32">
<path style="fill: #FFFFFF" d="M24.002 17.331h-6.667v6.667c0 0.354-0.14 0.693-0.39 0.943s-0.589 0.391-0.943 0.391-0.693-0.14-0.943-0.391c-0.25-0.25-0.391-0.589-0.391-0.943v-6.667h-6.667c-0.354 0-0.693-0.14-0.943-0.391s-0.391-0.589-0.391-0.943c0-0.354 0.14-0.693 0.391-0.943s0.589-0.391 0.943-0.391h6.667v-6.667c0-0.354 0.14-0.693 0.391-0.943s0.589-0.391 0.943-0.391c0.354 0 0.693 0.14 0.943 0.391s0.39 0.589 0.39 0.943v6.667h6.667c0.354 0 0.693 0.14 0.943 0.391s0.39 0.589 0.39 0.943c0 0.354-0.14 0.693-0.39 0.943s-0.589 0.391-0.943 0.391z"></path>
</symbol>
<symbol id="icon-posters" viewBox="0 0 32 32">
<path d="M28.744 1.468c-8.306 1.251-16.887 1.791-25.894 1.199 0.596 9.277 1.138 18.571 1.022 27.971 8.103-0.556 16.203-1.125 24.572-0.256-0.356-9.656-0.869-19.312 0.3-28.914zM15.694 5.087c2.9 0.014 5.813 1.238 7.919 3.607 3.85 4.319 3.606 11.156-0.6 14.9-0.2 0.181-0.406 0.344-0.612 0.506-0.912 1.625-0.888 3.569-2.437 3.856-0.806 0.15-1.625-0.637-2.325-1.419-0.3 0.537-0.606 0.912-0.988 0.9-0.356-0.012-0.569-0.631-0.712-1.344-2.781-0.112-5.537-1.331-7.55-3.594-3.851-4.319-3.611-11.156 0.6-14.906 1.906-1.697 4.3-2.519 6.706-2.507zM15.963 7.356c-0.425 0.006-0.85 0.044-1.275 0.119-0.113 0.6-0.269 1.156-0.563 1.169-0.306 0.012-0.544-0.325-0.781-0.781-0.85 0.325-1.656 0.819-2.394 1.475-3.269 2.912-3.956 7.962-0.881 11.412 3.069 3.45 8.175 3.825 11.444 0.912 3.269-2.906 3.494-8.025 0.419-11.475-1.681-1.887-3.825-2.831-5.969-2.831zM16.494 10.119c1.119 0.012 2.206 0.381 3.081 1.15 2.144 1.894 2.112 5.512 0.188 7.688-1.925 2.181-5.256 2.475-7.4 0.575-2.144-1.894-2.262-5.238-0.331-7.413 1.144-1.294 2.831-2.019 4.463-2zM15.844 12.475c-0.881-0.006-1.762 0.325-2.375 1.012-1.156 1.306-0.806 3.3 0.387 4.356s3.344 0.925 4.5-0.381c1.15-1.3 0.775-3.175-0.419-4.231-0.562-0.5-1.325-0.756-2.094-0.756zM15.681 14.575c0.173 0 0.343 0.031 0.503 0.092s0.304 0.149 0.426 0.26 0.218 0.244 0.284 0.389c0.066 0.146 0.1 0.301 0.1 0.459s-0.034 0.313-0.1 0.459c-0.066 0.146-0.162 0.278-0.284 0.389s-0.267 0.2-0.426 0.26c-0.159 0.060-0.33 0.092-0.503 0.092s-0.343-0.031-0.503-0.092c-0.159-0.060-0.304-0.149-0.426-0.26s-0.219-0.244-0.284-0.389c-0.066-0.145-0.1-0.301-0.1-0.459s0.034-0.313 0.1-0.459 0.162-0.278 0.284-0.389c0.122-0.111 0.267-0.2 0.426-0.26s0.33-0.092 0.503-0.092z"></path>
</symbol>
<symbol id="icon-sliders" viewBox="0 0 32 32">
<path d="M5.942 4.8h20.623c0.15-0 0.299 0.029 0.437 0.087s0.264 0.141 0.371 0.248c0.106 0.106 0.19 0.232 0.248 0.371s0.087 0.287 0.087 0.437v20.506c0 0.15-0.029 0.298-0.087 0.437s-0.142 0.264-0.248 0.371c-0.106 0.106-0.232 0.19-0.371 0.248s-0.287 0.087-0.437 0.087h-20.623c-0.15 0-0.298-0.029-0.437-0.087s-0.264-0.141-0.37-0.248-0.19-0.232-0.247-0.371c-0.057-0.139-0.087-0.287-0.087-0.437v-20.506c-0-0.15 0.029-0.298 0.087-0.437s0.141-0.264 0.247-0.37c0.106-0.106 0.232-0.19 0.37-0.248s0.287-0.087 0.437-0.087zM7.171 25.323l2.502-1.165h14.19c0.075-0 0.149-0.015 0.218-0.044s0.132-0.071 0.184-0.124c0.053-0.053 0.094-0.116 0.123-0.185s0.043-0.143 0.043-0.218l-0.056-14.223 1.127-2.327h-18.33v18.286z"></path>
<path d="M11.339 13.854c-0.075 0-0.149 0.015-0.218 0.043s-0.132 0.071-0.185 0.124c-0.053 0.053-0.095 0.116-0.124 0.185s-0.043 0.143-0.043 0.218v1.142c-0 0.075 0.015 0.149 0.043 0.218s0.071 0.132 0.124 0.184c0.053 0.053 0.116 0.094 0.185 0.123s0.143 0.043 0.218 0.042l10.205-0.052c0.315-0.002 0.578-0.258 0.588-0.573l0.033-1.085c0.003-0.074-0.009-0.148-0.036-0.217s-0.067-0.133-0.119-0.186c-0.052-0.053-0.114-0.096-0.182-0.124s-0.142-0.043-0.216-0.043h-10.273z"></path>
</symbol>
<!-- <symbol id="icon-administration" viewBox="0 0 32 32">
<path d="M10.4 21.3c-0.12 0-0.239 0.016-0.353 0.051-0.648 0.197-1.329 0.324-2.047 0.324s-1.399-0.127-2.047-0.324c-0.114-0.035-0.233-0.051-0.353-0.051-3.103 0-5.616 2.366-5.6 5.279 0.007 1.231 1.087 2.221 2.4 2.221h11.2c1.313 0 2.393-0.99 2.4-2.221 0.016-2.913-2.497-5.279-5.6-5.279zM8 19.8c2.651 0 4.8-2.015 4.8-4.5s-2.149-4.5-4.8-4.5-4.8 2.015-4.8 4.5c0 2.485 2.149 4.5 4.8 4.5zM29.6 4.8h-19.2c-1.323 0-2.4 1.043-2.4 2.325v2.175c1.171 0 2.255 0.318 3.2 0.834v-2.334h17.6v13.5h-3.2v-3h-6.4v3h-3.812c0.955 0.782 1.656 1.816 1.984 3h12.228c1.324 0 2.4-1.043 2.4-2.324v-14.851c0-1.282-1.076-2.325-2.4-2.325z"></path>
</symbol> -->
<symbol id="icon-administration" viewBox="0 0 32 32">
<path d="M13.046 13.164c-1.189 0-2.351-0.353-3.339-1.013s-1.758-1.6-2.213-2.698c-0.455-1.098-0.573-2.307-0.34-3.473s0.806-2.236 1.647-3.076c0.841-0.84 1.913-1.412 3.079-1.642s2.375-0.111 3.472 0.346c1.098 0.456 2.036 1.228 2.695 2.217s1.010 2.152 1.008 3.341c-0.005 1.591-0.64 3.116-1.766 4.241s-2.652 1.757-4.243 1.759zM13.046 2.933c-0.837 0-1.655 0.248-2.351 0.713s-1.238 1.126-1.558 1.899c-0.32 0.773-0.404 1.624-0.241 2.445s0.566 1.575 1.158 2.166c0.592 0.592 1.346 0.995 2.166 1.158s1.671 0.079 2.445-0.241c0.773-0.32 1.434-0.863 1.899-1.558s0.713-1.514 0.713-2.351c0-1.122-0.446-2.198-1.239-2.992s-1.87-1.239-2.992-1.239z"></path>
<path d="M14.593 28.16c-0.194-0.194-0.344-0.428-0.439-0.686s-0.133-0.533-0.112-0.807h-10.489v-5.138c1.26-1.345 2.789-2.41 4.487-3.127s3.528-1.069 5.371-1.033h0.64c-0.041-0.298-0.012-0.601 0.083-0.887s0.256-0.545 0.468-0.758l0.107-0.098c-0.418 0-0.889-0.053-1.298-0.053-2.169-0.052-4.321 0.38-6.303 1.262s-3.742 2.194-5.155 3.84c-0.115 0.154-0.178 0.341-0.178 0.533v5.458c0 0.472 0.187 0.924 0.521 1.257s0.786 0.521 1.257 0.521h11.289l-0.249-0.284z"></path>
<path d="M23.888 14.48c0.044-0.009 0.089-0.009 0.133 0-0.044-0.008-0.089-0.008-0.133 0z"></path>
<path d="M29.94 20.729l-1.778-0.542c-0.127-0.435-0.3-0.855-0.516-1.253l0.889-1.653c0.029-0.066 0.036-0.14 0.020-0.21s-0.054-0.134-0.109-0.181l-1.289-1.289c-0.049-0.053-0.114-0.088-0.185-0.099s-0.144 0.002-0.206 0.037l-1.636 0.889c-0.403-0.226-0.829-0.408-1.271-0.542l-0.542-1.778c-0.023-0.065-0.067-0.122-0.124-0.16s-0.126-0.057-0.196-0.053h-1.822c-0.070-0.001-0.138 0.021-0.195 0.063s-0.097 0.101-0.116 0.168l-0.542 1.778c-0.445 0.129-0.875 0.308-1.28 0.533l-1.618-0.889c-0.061-0.034-0.133-0.047-0.202-0.036s-0.133 0.046-0.18 0.098l-1.316 1.28c-0.049 0.052-0.080 0.117-0.090 0.187s0.003 0.142 0.036 0.204l0.889 1.618c-0.235 0.401-0.423 0.827-0.56 1.271l-1.778 0.533c-0.067 0.019-0.126 0.060-0.168 0.117s-0.064 0.124-0.063 0.194v1.822c0.005 0.064 0.030 0.125 0.072 0.175s0.097 0.085 0.159 0.101l1.778 0.542c0.131 0.436 0.31 0.856 0.533 1.253l-0.889 1.698c-0.034 0.061-0.047 0.131-0.037 0.2s0.041 0.133 0.091 0.182l1.289 1.289c0.050 0.050 0.115 0.083 0.186 0.094s0.142 0 0.206-0.032l1.662-0.889c0.396 0.213 0.813 0.383 1.244 0.507l0.533 1.778c0.022 0.066 0.063 0.123 0.119 0.165s0.123 0.065 0.192 0.067h1.822c0.070-0.001 0.137-0.023 0.193-0.065s0.097-0.1 0.118-0.166l0.542-1.822c0.426-0.124 0.837-0.294 1.227-0.507l1.68 0.889c0.062 0.033 0.133 0.044 0.202 0.033s0.132-0.045 0.181-0.096l1.351-1.209c0.036-0.052 0.056-0.114 0.056-0.178s-0.020-0.126-0.056-0.178l-0.889-1.671c0.216-0.392 0.389-0.806 0.516-1.236l1.778-0.542c0.067-0.019 0.126-0.060 0.168-0.117s0.064-0.124 0.063-0.194v-1.867c0.008-0.060-0.001-0.121-0.026-0.176s-0.065-0.102-0.116-0.135zM22.092 24.889c-0.588 0.002-1.163-0.171-1.653-0.497s-0.871-0.789-1.097-1.332c-0.226-0.543-0.285-1.141-0.171-1.717s0.397-1.107 0.813-1.522c0.416-0.416 0.946-0.699 1.522-0.813s1.174-0.055 1.717 0.171c0.543 0.226 1.006 0.608 1.332 1.097s0.498 1.065 0.497 1.653c-0.002 0.784-0.315 1.536-0.87 2.091s-1.306 0.867-2.090 0.869z"></path>
</symbol>
<symbol id="icon-video" viewBox="0 0 32 32">
<path d="M26.5 19.583h0.083v-12.167h-21.167v12.167h21.083zM13.083 16v-5c-0-0.253 0.068-0.501 0.196-0.719s0.313-0.398 0.534-0.52c0.221-0.123 0.471-0.184 0.724-0.177s0.499 0.081 0.714 0.215l4 2.5c0.204 0.127 0.372 0.304 0.489 0.515s0.178 0.447 0.178 0.687c0 0.24-0.061 0.477-0.178 0.687s-0.285 0.387-0.489 0.515l-0 0-4 2.5c-0.214 0.134-0.461 0.208-0.714 0.215s-0.503-0.055-0.724-0.177c-0.221-0.123-0.406-0.302-0.534-0.52s-0.196-0.466-0.196-0.719zM5 4.583h22c0.641 0 1.256 0.255 1.709 0.708s0.708 1.068 0.708 1.709v13c0 0.641-0.255 1.256-0.708 1.709s-1.068 0.708-1.709 0.708h-22c-0.641 0-1.256-0.255-1.709-0.708s-0.708-1.068-0.708-1.709v-13c0-0.641 0.255-1.256 0.708-1.709s1.068-0.708 1.709-0.708zM29.417 26c0 0.376-0.149 0.736-0.415 1.002s-0.626 0.415-1.002 0.415h-24c-0.376 0-0.736-0.149-1.002-0.415s-0.415-0.626-0.415-1.002 0.149-0.736 0.415-1.002c0.266-0.266 0.626-0.415 1.002-0.415h24c0.376 0 0.736 0.149 1.002 0.415s0.415 0.626 0.415 1.002z"></path>
</symbol>
<symbol id="icon-trash" viewBox="0 0 32 32">
<path stroke-linejoin="round" stroke-linecap="round" stroke-miterlimit="4" stroke-width="2.8" d="M4 8h24"></path>
<path stroke-linejoin="round" stroke-linecap="round" stroke-miterlimit="4" stroke-width="2.8" d="M25.335 8.001v18.667c0 0.707-0.281 1.385-0.781 1.886s-1.178 0.781-1.886 0.781h-13.333c-0.707 0-1.386-0.281-1.886-0.781s-0.781-1.178-0.781-1.886v-18.667M10.669 8.001v-2.667c0-0.707 0.281-1.386 0.781-1.886s1.178-0.781 1.886-0.781h5.333c0.707 0 1.385 0.281 1.886 0.781s0.781 1.178 0.781 1.886v2.667"></path>
<path stroke-linejoin="round" stroke-linecap="round" stroke-miterlimit="4" stroke-width="2.8" d="M13.331 14.667v8"></path>
<path stroke-linejoin="round" stroke-linecap="round" stroke-miterlimit="4" stroke-width="2.8" d="M18.669 14.667v8"></path>
</symbol>
<symbol id="icon-logo" viewBox="0 0 32 32">
<path fill="#0047ff" style="fill: var(--color1, #0047ff)" d="M16.459 32c-2.624-0.058-4.823-0.348-6.911-1.243-0.876-0.376-1.693-0.872-2.295-1.641-0.29-0.371-0.506-0.829-0.653-1.284-0.101-0.312-0.207-0.435-0.522-0.451-1.074-0.054-1.961-0.491-2.551-1.449-0.477-0.774-0.574-1.616-0.293-2.485 0.095-0.293 0.078-0.472-0.22-0.601-2.828-1.225-3.521-4.372-2.679-6.906 0.38-1.146 1.002-2.145 1.798-3.025 0.235-0.26 0.266-0.47 0.15-0.789-0.712-1.966-0.653-3.904 0.232-5.808 0.504-1.083 0.978-1.324 2.103-1.029 0.349 0.091 0.534-0.122 0.637-0.391 0.534-1.405 1.53-2.142 2.978-2.3 0.594-0.065 0.766-0.295 0.799-0.86 0.070-1.208 0.882-1.919 2.047-1.699 0.648 0.122 1.271 0.387 1.9 0.603 0.452 0.155 0.891 0.353 1.346 0.497 0.112 0.035 0.324-0.021 0.389-0.112 0.33-0.462 0.798-0.657 1.309-0.695 0.78-0.058 1.537 0.039 2.112 0.687 0.307 0.345 0.644 0.464 1.122 0.341 0.904-0.233 1.764-0.025 2.496 0.568 0.538 0.436 1.047 0.621 1.748 0.369 0.649-0.233 1.257 0.081 1.734 0.566 0.307 0.312 0.577 0.667 0.837 1.023 0.222 0.303 0.506 0.436 0.853 0.551 0.597 0.197 1.198 0.431 1.737 0.754 0.73 0.438 0.823 1.255 0.903 2.030 0.086 0.831 0.291 1.577 0.859 2.232 0.626 0.722 0.755 1.575 0.317 2.491-0.182 0.382-0.327 0.801-0.392 1.219-0.128 0.815-0.020 1.544 0.615 2.198 0.646 0.666 1.105 1.5 1.027 2.519-0.066 0.856-0.458 1.527-1.134 2.016-0.366 0.265-0.753 0.5-1.13 0.75-0.47 0.312-0.734 0.77-0.78 1.33-0.112 1.364-0.71 2.533-1.354 3.683-0.419 0.75-0.848 1.517-1.594 1.969-0.445 0.27-0.728 0.593-0.931 1.084-0.337 0.815-1.017 1.308-1.756 1.722-1.37 0.769-2.856 1.131-4.384 1.329-0.945 0.122-1.897 0.18-2.468 0.232v0.001zM25.304 12.003c0.029 0.030 0.058 0.059 0.086 0.089 0.072 0.060 0.134 0.151 0.216 0.176 1.376 0.413 2.62 0.025 3.786-0.717 0.3-0.191 0.291-0.492 0.059-0.765-0.095-0.111-0.197-0.22-0.312-0.307-0.558-0.42-0.782-0.993-0.799-1.691-0.006-0.25-0.118-0.497-0.183-0.746-0.059-0.051-0.118-0.101-0.177-0.152-0.009-0.062-0.017-0.124-0.025-0.186 0.451-0.9 0.228-1.375-0.725-1.547-0.1-0.018-0.2-0.036-0.3-0.046-0.816-0.082-1.505-0.398-1.982-1.12-0.138-0.209-0.295-0.405-0.457-0.596-0.564-0.662-1.026-0.607-1.435 0.173-0.617 1.176-0.831 2.443-0.697 3.76 0.18 1.766 0.953 2.621 2.382 2.72 0.044 0.168 0.088 0.336 0.132 0.505 0.057 0.074 0.113 0.149 0.169 0.223l0.043 0.137 0.218 0.089h0.001l-0.001 0.001zM9.504 10.661c-0.092-0.33-0.185-0.66-0.294-1.052-0.519 0.257-0.999 0.485-1.47 0.729-0.842 0.435-0.767 0.222-0.467 1.197 0.004 0.012 0.019 0.021 0.030 0.032 0.114 0.452 0.229 0.904 0.325 1.282-0.271 0.206-0.539 0.355-0.732 0.573-0.166 0.187-0.188 0.508 0.093 0.588 0.215 0.061 0.538-0.006 0.711-0.148 0.168-0.137 0.323-0.47 0.279-0.669-0.124-0.561-0.353-1.097-0.54-1.643 0.038-0.145 0.033-0.37 0.121-0.421 0.511-0.292 1.045-0.542 1.583-0.812 0.071 0.151 0.119 0.252 0.166 0.353 0.119 0.421 0.238 0.841 0.329 1.162-0.305 0.244-0.581 0.402-0.771 0.635-0.156 0.191-0.149 0.514 0.146 0.567 0.224 0.041 0.53-0.039 0.706-0.184 0.155-0.128 0.281-0.443 0.243-0.639-0.102-0.527-0.299-1.034-0.458-1.549zM7.545 16.661c-0.038 0.206-0.077 0.411-0.116 0.617l-0.168-0.001c0.074-0.355-0.088-0.524-0.418-0.543-0.284-0.017-0.569-0.018-0.853-0.035-0.104-0.006-0.205-0.042-0.307-0.065-0.020-0.022-0.040-0.045-0.060-0.067l-0.116-0.273c-0.154-0.431-0.285-0.872-0.469-1.289-0.125-0.284-0.089-0.473 0.104-0.713 0.917-1.145 1.235-2.464 1.004-3.927-0.209-1.326-0.765-2.486-1.59-3.517-0.367-0.458-0.504-0.433-0.767 0.083-0.983 1.933-0.576 3.842 0.132 5.723 0.113 0.302 0.045 0.41-0.11 0.6-0.574 0.702-1.201 1.371-1.687 2.135-0.636 0.999-0.845 2.142-0.668 3.337 0.301 2.034 1.883 3.032 3.882 3.301 0.083 0.008 0.166 0.016 0.249 0.025 0.586-0.103 1.173-0.206 1.851-0.325 0.12 0.434 0.302 0.95 0.4 1.481 0.112 0.608 0.086 1.217-0.314 1.744-0.4 0.529-1.171 0.826-1.669 0.616 0.122-0.072 0.238-0.13 0.343-0.204 0.572-0.406 0.715-1.198 0.314-1.721-0.352-0.459-0.912-0.581-1.442-0.316-0.465 0.233-0.687 0.789-0.549 1.371 0.184 0.769 0.828 1.267 1.633 1.264 0.918-0.004 1.741-0.652 1.957-1.535 0.192-0.789 0.040-1.551-0.263-2.263-0.217-0.51-0.2-0.835 0.204-1.266 0.878-0.935 0.777-2.701-0.116-3.451-0.046-0.031-0.092-0.063-0.138-0.094 0.054-0.319 0.109-0.638 0.164-0.964 0.43-0.016 0.653 0.23 0.855 0.539 0.188 0.286 0.38 0.598 0.764 0.53-0.202-0.268-0.387-0.522-0.582-0.768-0.179-0.227-0.336-0.493-0.56-0.659-0.527-0.392-0.665-0.322-0.808 0.316-0.010 0.043-0.028 0.084-0.042 0.126-0.074 0.014-0.147 0.029-0.314 0.062 0.146 0.068 0.209 0.098 0.271 0.127l-0.001-0.001zM23.14 18.531c-0.109 1.31-0.218 2.619-0.327 3.93 0.002 0.3 0.003 0.599 0.005 0.899 0.117 0.611 0.474 0.968 1.072 1.065 1.098 0.178 1.34-0.672 1.621-1.544 0.062 0.236 0.109 0.376 0.136 0.521 0.076 0.407 0.288 0.59 0.711 0.62 0.394 0.028 0.576-0.184 0.683-0.485 0.249-0.695 0.519-1.389 0.676-2.108 0.168-0.77 0.491-1.384 1.13-1.825 0.432-0.298 0.857-0.609 1.27-0.934 0.371-0.293 0.574-0.706 0.454-1.178-0.164-0.643-0.538-1.166-1.074-1.624-0.573 0.684-1.116 1.337-1.664 1.986-0.631 0.747-0.852 0.738-1.462-0.049-0.054-0.070-0.094-0.151-0.15-0.219-0.207-0.252-0.164-0.429 0.109-0.609 0.621-0.409 1.206-0.879 1.842-1.259 0.589-0.352 1.003-0.715 0.799-1.518-0.093-0.368-0.016-0.782-0.016-1.179-0.019-0.002-0.054-0.019-0.073-0.008-0.657 0.368-1.343 0.612-2.109 0.558-0.073-0.005-0.221 0.162-0.224 0.253-0.019 0.566-0.343 0.558-0.74 0.461-0.555-0.137-1.112-0.266-1.737-0.416 0 0.299 0.017 0.55-0.003 0.798-0.043 0.53-0.021 1.088-0.185 1.578-0.162 0.484-0.248 0.894 0.042 1.331 0.011 0.016-0.010 0.055 0.011-0.039-0.305 0.322-0.537 0.566-0.768 0.811-0.008 0.061-0.016 0.122-0.024 0.184l0.001-0.001zM23.486 26.668c-0.195-0.037-0.388-0.098-0.584-0.104-0.513-0.015-1.026-0.005-1.534-0.005-0.072-0.412 0.098-0.56 0.47-0.547 0.197 0.007 0.397-0.044 0.595-0.070 0.002-0.042 0.004-0.083 0.006-0.125-0.484-0.135-0.964-0.288-1.453-0.401-0.591-0.137-1.193-0.226-1.783-0.366-0.424-0.101-0.713-0.32-0.713-0.86 0-0.191-0.253-0.503-0.44-0.549-0.527-0.131-1.083-0.228-1.622-0.204-2.142 0.094-4.214 0.561-6.161 1.493-0.646 0.309-1.264 0.732-1.806 1.209-0.748 0.66-0.723 1.454-0.030 2.163 0.727 0.743 1.627 1.183 2.591 1.479 2.852 0.874 5.742 0.964 8.659 0.403 1.174-0.226 2.298-0.588 3.324-1.232s1.177-1.38 0.473-2.29c0.154 0.016 0.312 0.013 0.46 0.051 0.84 0.216 2-0.515 2.082-1.141-0.468 0-0.949 0.007-1.429-0.002-0.915-0.017-1.105 0.167-1.107 1.097l0.001-0.001zM16.811 5.711c0.131-0.090 0.237-0.22 0.356-0.234 0.495-0.059 1.097 0.452 1.182 0.961 0.012 0.071 0.077 0.147 0.137 0.191 0.198 0.147 0.406 0.279 0.608 0.421 0.994 0.7 2.226 0.176 2.421-1.091-0.524-0.115-1.052-0.231-1.625-0.357 0.082-0.249 0.153-0.464 0.233-0.705 0.541 0.255 1.038 0.49 1.541 0.728 0.479-1.411-0.193-2.387-1.523-2.379-0.228 0.001-0.455-0.031-0.691-0.048-0.082 0.102-0.156 0.239-0.267 0.32-0.358 0.262-1.271-0.088-1.416-0.525-0.017-0.051-0.049-0.11-0.092-0.134-0.299-0.177-0.592-0.371-0.907-0.512-0.569-0.255-1.212 0.016-1.442 0.603 0.106 0.039 0.209 0.085 0.316 0.117 0.457 0.137 0.921 0.256 1.371 0.415 0.145 0.051 0.376 0.228 0.362 0.307-0.064 0.342-0.154 0.704-0.342 0.984-0.064 0.097-0.449 0.016-0.664-0.054-0.487-0.161-0.961-0.366-1.474-0.567-0.025 0.162-0.056 0.247-0.047 0.328 0.069 0.652 0.569 1.1 1.281 1.159 0.228 0.019 0.454 0.048 0.683 0.072zM13.627 6.050c-0.025-0.031-0.049-0.063-0.074-0.094-0.118 0.027-0.239 0.045-0.354 0.081-0.858 0.272-1.644 0.179-2.373-0.407-0.466-0.375-0.947-0.752-1.472-1.023-0.381-0.196-0.854-0.328-1.273-0.297-0.764 0.055-1.2 0.627-1.401 1.341-0.216 0.767 0.060 1.413 0.641 1.909 0.333 0.284 0.697 0.534 1.064 0.77 0.505 0.324 0.997 0.251 1.375-0.17 0.427-0.474 0.476-0.99 0.153-1.504-0.063-0.101-0.095-0.223-0.181-0.431 1.315 0.553 1.808 1.53 1.791 2.86l0.161-0.029c0.647-1.001 1.294-2.003 1.942-3.005v-0.001zM14.101 18.616c-0.023 0.006-0.046 0.014-0.070 0.020-0.069-0.122-0.142-0.241-0.207-0.365-0.418-0.798-0.823-1.605-1.263-2.389-0.082-0.146-0.307-0.206-0.466-0.306-0.096 0.165-0.271 0.329-0.273 0.496-0.022 1.324-0.011 2.648-0.013 3.973 0 0.266 0.078 0.509 0.364 0.505 0.279-0.003 0.363-0.231 0.36-0.507-0.009-0.744-0.004-1.488-0.001-2.232 0-0.102 0.021-0.203 0.042-0.398 0.514 0.985 0.965 1.883 1.455 2.759 0.094 0.169 0.336 0.252 0.51 0.373 0.089-0.197 0.252-0.392 0.256-0.591 0.023-1.249 0.010-2.499 0.013-3.749 0-0.29 0.023-0.629-0.366-0.624-0.356 0.005-0.343 0.328-0.342 0.604 0.003 0.811 0.001 1.621 0.001 2.431l-0.001 0.001zM18.911 19.847c0.354-0.538 0.718-0.976 0.948-1.479 0.235-0.511 0.419-1.078 0.474-1.636 0.061-0.611-0.446-1.113-1.050-1.226-0.567-0.105-1.23 0.171-1.399 0.645-0.066 0.185-0.055 0.52 0.061 0.627 0.22 0.204 0.396 0.004 0.53-0.231 0.174-0.305 0.455-0.4 0.785-0.284 0.335 0.117 0.433 0.405 0.374 0.716-0.063 0.33-0.142 0.687-0.318 0.96-0.422 0.653-0.913 1.258-1.358 1.896-0.097 0.14-0.204 0.377-0.151 0.493 0.058 0.127 0.296 0.223 0.459 0.232 0.562 0.028 1.128 0.037 1.689-0.006 0.164-0.012 0.314-0.223 0.47-0.342-0.152-0.121-0.292-0.319-0.459-0.348-0.319-0.056-0.654-0.016-1.056-0.016v0.001zM13.962 14.003h0.974c0.18 0.2 0.289 0.322 0.398 0.443 0.052-0.154 0.149-0.31 0.143-0.461-0.006-0.15-0.119-0.295-0.18-0.445-0.046-0.112-0.116-0.227-0.118-0.342-0.013-0.52-0.013-1.041-0.003-1.562 0.005-0.251-0.094-0.356-0.334-0.34-0.129 0.008-0.261 0.012-0.39-0.001-0.326-0.034-0.484 0.083-0.47 0.447 0.011 0.28-0.014 0.567-0.060 0.844-0.069 0.412-0.089 0.859-0.524 1.131-0.28-0.643-0.73-1.246-0.219-1.976 0.025-0.035 0.054-0.088 0.045-0.123-0.026-0.102-0.069-0.2-0.106-0.3-0.080 0.048-0.194 0.077-0.233 0.15-0.104 0.194-0.153 0.422-0.268 0.607-0.066 0.107-0.217 0.158-0.409 0.289 0-0.362 0.018-0.571-0.008-0.775-0.012-0.096-0.107-0.181-0.165-0.27-0.070 0.092-0.198 0.184-0.201 0.278-0.017 0.699-0.015 1.398-0.002 2.098 0.002 0.091 0.109 0.179 0.167 0.268 0.070-0.092 0.191-0.18 0.199-0.277 0.026-0.318 0.010-0.64 0.010-0.961 0.041-0.025 0.083-0.049 0.124-0.074 0.1 0.089 0.234 0.158 0.293 0.27 0.124 0.234 0.182 0.507 0.318 0.73 0.093 0.152 0.272 0.247 0.486 0.429 0.038 0.061 0.134 0.216 0.23 0.371 0.088-0.131 0.176-0.261 0.301-0.449l0.001-0.001zM18.621 12.796c0.053-0.002 0.105-0.004 0.158-0.006 0.081 0.278 0.149 0.561 0.25 0.832 0.045 0.12 0.154 0.214 0.235 0.32 0.071-0.103 0.172-0.197 0.208-0.312 0.104-0.331 0.182-0.67 0.27-1.006 0.156 0.352 0.196 0.7 0.274 1.039 0.026 0.113 0.147 0.203 0.225 0.303 0.052-0.118 0.158-0.243 0.145-0.353-0.076-0.649-0.169-1.297-0.281-1.94-0.023-0.133-0.153-0.245-0.233-0.366-0.092 0.118-0.224 0.223-0.268 0.358-0.124 0.382-0.211 0.776-0.312 1.166-0.207-0.426-0.308-0.852-0.44-1.268-0.033-0.102-0.165-0.171-0.252-0.256-0.072 0.098-0.19 0.187-0.209 0.295-0.112 0.658-0.21 1.319-0.29 1.982-0.014 0.12 0.078 0.253 0.121 0.38 0.093-0.106 0.236-0.198 0.269-0.321 0.073-0.274 0.091-0.565 0.131-0.849h-0.001zM16.032 13.522c0-0.647 0.009-1.254-0.008-1.86-0.003-0.118-0.109-0.233-0.168-0.349-0.065 0.113-0.183 0.224-0.185 0.339-0.018 0.654-0.001 1.309-0.012 1.963-0.005 0.269 0.094 0.373 0.356 0.366 0.491-0.013 0.983-0.018 1.473 0.002 0.305 0.012 0.411-0.108 0.405-0.414-0.013-0.61 0.009-1.221-0.014-1.83-0.005-0.145-0.126-0.285-0.195-0.427-0.065 0.145-0.179 0.287-0.184 0.435-0.021 0.589-0.009 1.179-0.009 1.791-0.199-0.009-0.339-0.017-0.5-0.024-0.006-0.141-0.016-0.257-0.017-0.373-0.002-0.506 0.009-1.012-0.010-1.517-0.004-0.105-0.114-0.207-0.176-0.31-0.077 0.104-0.185 0.198-0.223 0.315-0.039 0.121-0.009 0.265-0.009 0.399 0 0.498 0 0.997 0 1.493h-0.526v-0.001zM15.141 16.751c-0.005 0.815 0.289 1.26 0.869 1.317 0.638 0.062 1.041-0.363 1.084-1.147 0.049-0.879-0.3-1.409-0.941-1.43-0.647-0.022-1.007 0.426-1.012 1.261zM16.819 4.62c0.082-0.218 0.187-0.39 0.2-0.568 0.008-0.113-0.098-0.316-0.192-0.344-1.287-0.385-2.58-0.75-3.875-1.106-0.084-0.023-0.199 0.077-0.299 0.119 0.062 0.097 0.103 0.236 0.191 0.282 0.243 0.128 0.504 0.219 0.759 0.322 1.057 0.426 2.115 0.852 3.216 1.296zM11.989 2.14c-0.050-0.001-0.101-0.002-0.152-0.003 0.007-0.099 0.023-0.198 0.021-0.297s-0.025-0.197-0.038-0.296c-0.101 0.019-0.272 0.009-0.292 0.061-0.162 0.422-0.306 0.854-0.427 1.289-0.015 0.055 0.127 0.157 0.197 0.237 0.233-0.215 0.733 0.517 0.813-0.243 0.694-0.147 0.050-0.727 0.31-1.014-0.057-0.042-0.113-0.117-0.169-0.116-0.073 0-0.177 0.040-0.212 0.098-0.045 0.076-0.036 0.187-0.050 0.283v0.001zM16.094 19.197c0 0 0-0.002 0-0.003 0.202 0 0.414 0.038 0.602-0.014 0.125-0.034 0.308-0.208 0.299-0.302-0.014-0.138-0.165-0.361-0.276-0.373-0.399-0.047-0.808-0.047-1.207-0.003-0.108 0.012-0.257 0.237-0.268 0.375-0.008 0.097 0.168 0.268 0.29 0.306 0.172 0.053 0.371 0.014 0.56 0.014l0.001 0.001zM10.441 5.033c0.306-0.108 0.538-0.19 0.879-0.31-0.239-0.199-0.433-0.386-0.653-0.535-0.129-0.088-0.299-0.114-0.45-0.167 0.029 0.127 0.061 0.253 0.085 0.38 0.008 0.041 0.010 0.097-0.010 0.127-0.22 0.323-0.005 0.437 0.149 0.507zM11.195 1.92c-0.165-0.155-0.309-0.324-0.332-0.308-0.176 0.123-0.399 0.256-0.462 0.438-0.038 0.111 0.181 0.316 0.286 0.479 0.154-0.184 0.308-0.369 0.509-0.61z"></path>
<path fill="#f4f4f4" style="fill: var(--color2, #f4f4f4)" d="M23.481 26.661c0.704 0.91 0.554 1.645-0.473 2.29-1.026 0.644-2.15 1.006-3.324 1.232-2.918 0.562-5.807 0.471-8.659-0.403-0.964-0.295-1.864-0.735-2.591-1.479-0.693-0.709-0.718-1.503 0.030-2.163 0.542-0.478 1.16-0.9 1.806-1.209 1.947-0.932 4.020-1.399 6.161-1.493 0.539-0.024 1.095 0.073 1.622 0.204 0.186 0.047 0.439 0.358 0.44 0.549 0 0.54 0.289 0.758 0.713 0.859 0.59 0.141 1.192 0.229 1.783 0.366 0.489 0.114 0.969 0.266 1.453 0.401-0.002 0.042-0.004 0.083-0.006 0.125-0.199 0.025-0.398 0.077-0.595 0.070-0.373-0.014-0.542 0.134-0.47 0.547 0.508 0 1.021-0.010 1.534 0.005 0.195 0.006 0.389 0.068 0.584 0.104l-0.006-0.006-0.001 0.001zM21.080 26.040c-4.061 0.087-8.093 0.494-12.11 1.119 0.155 0.087 0.308 0.111 0.461 0.105 2.573-0.087 5.147-0.157 7.719-0.274 1.182-0.054 2.36-0.217 3.541-0.302 0.414-0.030 0.471-0.239 0.389-0.647v-0.001zM15.983 25.122c0.403-0.102 0.877-0.212 1.344-0.348 0.091-0.026 0.226-0.173 0.213-0.236-0.021-0.105-0.13-0.236-0.23-0.273-0.812-0.298-1.615-0.213-2.396 0.125-0.097 0.042-0.212 0.201-0.203 0.296s0.148 0.227 0.252 0.254c0.304 0.080 0.619 0.115 1.020 0.183v-0.001zM19.627 28.423c0.686 0.338 1.376 0.254 2.053-0.009 0.146-0.057 0.244-0.247 0.363-0.376-0.125-0.12-0.25-0.24-0.388-0.372-0.551 0.765-1.327 0.628-2.028 0.758v-0.001zM16.088 29.198c0.458 0.336 1.579 0.303 1.94-0.078 0.065-0.068 0.025-0.243 0.033-0.368-0.119 0.004-0.25-0.024-0.355 0.018-0.209 0.083-0.393 0.248-0.606 0.299-0.329 0.078-0.673 0.090-1.012 0.13l0.001-0.001zM12.916 28.975c0.292 0.199 1.214 0.181 1.471-0.097 0.065-0.070 0.021-0.245 0.023-0.295-0.574 0.15-1.057 0.276-1.494 0.391zM11.538 27.887c-0.426 0.104-0.822 0.201-1.22 0.298 0.559 0.277 1.14 0.142 1.22-0.298z"></path>
<path fill="#f4f4f4" style="fill: var(--color2, #f4f4f4)" d="M23.163 18.346c0.232-0.244 0.463-0.489 0.768-0.811-0.021 0.095 0 0.056-0.011 0.039-0.29-0.438-0.204-0.847-0.042-1.331 0.164-0.49 0.142-1.049 0.185-1.578 0.021-0.247 0.003-0.498 0.003-0.798 0.626 0.15 1.182 0.279 1.737 0.416 0.398 0.098 0.721 0.105 0.74-0.461 0.003-0.091 0.152-0.258 0.224-0.253 0.767 0.054 1.451-0.19 2.109-0.558 0.020-0.011 0.054 0.005 0.073 0.008 0 0.396-0.077 0.81 0.016 1.179 0.204 0.803-0.21 1.166-0.799 1.518-0.636 0.381-1.221 0.85-1.842 1.259-0.273 0.18-0.317 0.357-0.109 0.609 0.056 0.068 0.096 0.149 0.15 0.219 0.61 0.787 0.831 0.796 1.462 0.049 0.548-0.649 1.091-1.301 1.664-1.986 0.536 0.458 0.91 0.981 1.074 1.624 0.12 0.472-0.083 0.884-0.454 1.178-0.412 0.326-0.837 0.636-1.269 0.934-0.639 0.441-0.962 1.056-1.13 1.826-0.156 0.719-0.427 1.413-0.676 2.108-0.108 0.3-0.289 0.512-0.683 0.485-0.422-0.029-0.635-0.212-0.71-0.62-0.027-0.145-0.073-0.286-0.136-0.521-0.281 0.872-0.523 1.722-1.621 1.544-0.598-0.097-0.955-0.453-1.072-1.064-0.002-0.3-0.003-0.599-0.005-0.899 0.109-1.31 0.218-2.62 0.327-3.93 0.008-0.061 0.016-0.123 0.024-0.184h-0.001zM24.677 18.545c-0.508 0.243-1.148 0.346-1.394 0.723-0.248 0.38-0.122 1.030-0.127 1.563-0.008 0.808 0.32 1.195 1.082 1.274 0.727 0.076 1.229-0.090 1.351-0.934 0.042-0.293 0.12-0.58 0.155-0.874 0.014-0.123-0.005-0.282-0.072-0.378-0.323-0.471-0.668-0.925-0.996-1.374h-0.001zM24.949 17.15c0.363-0.481 0.674-0.894 0.995-1.32-0.629-0.143-1.15-0.26-1.703-0.386 0.009 0.632 0.241 1.145 0.707 1.706v-0.001zM25.94 20.735c0.041 0.012 0.081 0.024 0.121 0.035 0.209-0.426 0.418-0.852 0.636-1.295-0.241-0.121-0.442-0.221-0.673-0.337-0.030 0.566-0.057 1.081-0.084 1.597zM27.007 15.205c-0.694-0.095-0.765-0.037-0.673 0.484 0.206-0.148 0.399-0.287 0.673-0.484z"></path>
<path fill="#f4f4f4" style="fill: var(--color2, #f4f4f4)" d="M24.871 11.554c-0.044-0.168-0.088-0.337-0.132-0.504-1.43-0.099-2.203-0.954-2.382-2.72-0.134-1.317 0.080-2.584 0.697-3.76 0.409-0.78 0.871-0.835 1.435-0.173 0.162 0.19 0.32 0.386 0.457 0.596 0.477 0.723 1.166 1.038 1.982 1.12 0.101 0.010 0.201 0.028 0.3 0.046 0.953 0.172 1.176 0.647 0.725 1.547-0.033 0.035-0.066 0.070-0.099 0.105 0.042 0.027 0.083 0.054 0.125 0.080 0.059 0.051 0.118 0.101 0.177 0.152-0.052 0.031-0.104 0.061-0.156 0.092-0.553 0.042-0.596 0.597-0.794 0.94-0.091 0.157 0.18 0.535 0.31 0.874-0.263-0.11-0.515-0.214-0.72-0.3-0.238 0.233-0.463 0.455-0.689 0.676 0.651 0.582 0.734 0.941 0.366 1.503-0.232-0.424-0.468-0.855-0.698-1.275-0.544 0.212-0.787 0.546-0.731 1.002h-0.173l-0.001-0.001zM23.193 8.031c-0.123 0.885 0.315 1.735 0.979 2 0.58 0.232 1.26 0 1.638-0.594-1.090-0.021-1.904-0.583-2.617-1.407h-0.001zM25.389 7.953c0.019 0.068 0.038 0.137 0.057 0.205 0.483-0.163 0.898-0.038 1.305 0.278-0.144-0.33-0.31-0.693-0.561-0.775-0.216-0.069-0.53 0.182-0.801 0.292zM23.135 6.565c0.579 0.148 1.025 0.333 1.206 0.887 0.174-0.383 0.139-0.69-0.156-0.931-0.306-0.25-0.617-0.214-1.050 0.044z"></path>
<path fill="#f4f4f4" style="fill: var(--color2, #f4f4f4)" d="M5.338 22.027c-1.999-0.268-3.58-1.266-3.882-3.301-0.177-1.195 0.032-2.338 0.668-3.337 0.486-0.763 1.112-1.433 1.687-2.135 0.155-0.19 0.224-0.299 0.11-0.6-0.708-1.881-1.115-3.79-0.132-5.723 0.262-0.515 0.4-0.541 0.767-0.083 0.825 1.030 1.381 2.19 1.59 3.517 0.231 1.463-0.087 2.782-1.004 3.927-0.192 0.24-0.229 0.429-0.104 0.713 0.184 0.417 0.315 0.858 0.469 1.289-0.063 0-0.125 0-0.188 0-0.193-0.454-0.385-0.908-0.626-1.477-0.522 0.71-1.001 1.303-1.417 1.939-1.217 1.866-0.172 4.592 1.903 5.084 0.064 0.015 0.106 0.123 0.158 0.187v0.001zM4.454 7.703c-0.97 1.002-0.755 3.878-0.192 4.982 1.577-1.446 1.664-3.732 0.192-4.982z"></path>
<path fill="#f4f4f4" style="fill: var(--color2, #f4f4f4)" d="M16.81 5.711c-0.228-0.024-0.455-0.053-0.683-0.072-0.711-0.058-1.212-0.507-1.281-1.159-0.009-0.081 0.023-0.166 0.047-0.328 0.513 0.2 0.987 0.406 1.474 0.567 0.216 0.071 0.6 0.151 0.664 0.054 0.186-0.28 0.278-0.641 0.342-0.984 0.015-0.079-0.217-0.256-0.362-0.307-0.45-0.158-0.914-0.277-1.371-0.415-0.107-0.032-0.21-0.078-0.316-0.117 0.23-0.587 0.873-0.858 1.442-0.603 0.315 0.141 0.608 0.335 0.907 0.512 0.042 0.025 0.075 0.084 0.091 0.134 0.145 0.438 1.058 0.787 1.416 0.525 0.112-0.081 0.185-0.219 0.267-0.32 0.236 0.017 0.463 0.050 0.691 0.048 1.33-0.008 2.002 0.968 1.523 2.379-0.503-0.237-1-0.472-1.541-0.728-0.080 0.242-0.151 0.456-0.233 0.705 0.573 0.126 1.101 0.242 1.625 0.357-0.195 1.266-1.427 1.791-2.421 1.091-0.201-0.142-0.41-0.274-0.608-0.421-0.060-0.045-0.125-0.121-0.137-0.191-0.086-0.51-0.687-1.021-1.183-0.961-0.119 0.014-0.225 0.144-0.356 0.234zM18.304 5.235c0.614-0.305 0.634-0.366 0.35-1.084-0.128 0.396-0.228 0.707-0.35 1.084z"></path>
<path fill="#0047ff" style="fill: var(--color1, #0047ff)" d="M5.339 22.027c-0.052-0.064-0.095-0.172-0.158-0.187-2.076-0.492-3.121-3.218-1.903-5.084 0.415-0.636 0.894-1.229 1.416-1.939 0.241 0.568 0.434 1.023 0.626 1.477-0.011 0.216 0.293 0.455-0.075 0.646-0.713 0.37-1.029 1.012-1.083 1.807-0.059 0.86 0.495 1.634 1.219 1.715-0.785-1.285-0.582-2.334 0.491-2.541 0.122 0.176 0.244 0.35 0.365 0.524 0.033-0.028 0.067-0.055 0.1-0.082-0.044-0.162-0.088-0.325-0.154-0.567 0.358 0.058 0.646 0.105 0.952 0.155 0.046-0.24 0.087-0.457 0.128-0.674 0.056 0 0.112 0.001 0.168 0.001-0.089 0.534-0.177 1.068-0.243 1.467-0.523 0-0.962-0.057-1.379 0.019-0.306 0.055-0.471 0.34-0.322 0.694 0.14 0.332 0.715 0.611 1.151 0.567 0.45-0.045 0.672-0.263 0.771-0.756 0.129-0.639 0.259-1.278 0.389-1.917 0.046 0.031 0.092 0.063 0.138 0.094-0.133 0.555-0.261 1.075-0.019 1.674 0.275 0.682 0.073 1.355-0.475 1.976-0.163-0.293-0.301-0.544-0.441-0.794-0.038 0.019-0.075 0.039-0.113 0.058 0.065 0.186 0.114 0.379 0.2 0.555 0.139 0.285 0.096 0.482-0.209 0.584-0.327 0.11-0.66 0.201-0.982 0.322-0.115 0.043-0.207 0.151-0.309 0.23-0.083-0.008-0.166-0.017-0.249-0.025l0.001-0.001z"></path>
<path fill="#f4f4f4" style="fill: var(--color2, #f4f4f4)" d="M13.627 6.051c-0.647 1.001-1.294 2.003-1.942 3.005l-0.161 0.030c0.017-1.33-0.477-2.306-1.791-2.86 0.086 0.209 0.118 0.33 0.181 0.431 0.323 0.515 0.273 1.031-0.153 1.504-0.379 0.421-0.87 0.493-1.375 0.17-0.368-0.236-0.731-0.486-1.064-0.77-0.581-0.495-0.858-1.142-0.641-1.909 0.201-0.715 0.638-1.286 1.401-1.341 0.419-0.031 0.891 0.101 1.273 0.297 0.525 0.27 1.006 0.647 1.472 1.023 0.728 0.586 1.515 0.679 2.373 0.407 0.115-0.037 0.236-0.055 0.354-0.081 0.025 0.031 0.049 0.063 0.074 0.094v0.001zM9.467 6.901c-0.632 0.667-1.006 0.696-1.518 0.151-0.293-0.312-0.321-0.72-0.072-1.049 0.241-0.317 0.601-0.383 0.967-0.174 0.088 0.051 0.162 0.134 0.255 0.167 0.076 0.027 0.168 0.001 0.254-0.001-0.028-0.073-0.036-0.171-0.088-0.215-0.144-0.123-0.301-0.231-0.461-0.332-0.519-0.327-1.038-0.226-1.367 0.26-0.324 0.478-0.253 1.057 0.206 1.432 0.316 0.258 0.658 0.485 0.998 0.708 0.269 0.177 0.556 0.203 0.784-0.068 0.217-0.257 0.267-0.548 0.042-0.88l0.001 0.001zM8.661 6.983c0.139-0.173 0.224-0.279 0.309-0.386-0.157-0.132-0.305-0.281-0.479-0.382-0.033-0.019-0.255 0.206-0.244 0.224 0.106 0.175 0.243 0.329 0.414 0.544z"></path>
<path fill="#f4f4f4" style="fill: var(--color2, #f4f4f4)" d="M14.101 18.616c0-0.811 0.002-1.621-0.001-2.431-0.001-0.276-0.014-0.598 0.342-0.604 0.388-0.005 0.366 0.334 0.366 0.624-0.002 1.25 0.011 2.5-0.013 3.749-0.004 0.199-0.167 0.394-0.256 0.591-0.174-0.122-0.416-0.204-0.51-0.373-0.489-0.876-0.941-1.774-1.455-2.759-0.021 0.195-0.041 0.296-0.042 0.398-0.003 0.744-0.007 1.488 0.001 2.232 0.003 0.276-0.081 0.503-0.36 0.507-0.287 0.003-0.365-0.239-0.364-0.505 0.001-1.324-0.010-2.649 0.013-3.973 0.003-0.167 0.178-0.331 0.273-0.496 0.159 0.1 0.384 0.16 0.466 0.306 0.441 0.785 0.845 1.591 1.263 2.389 0.065 0.124 0.138 0.244 0.207 0.365 0.023-0.006 0.046-0.014 0.070-0.020l0.001-0.001z"></path>
<path fill="#f4f4f4" style="fill: var(--color2, #f4f4f4)" d="M5.586 22.052c0.102-0.078 0.194-0.186 0.309-0.23 0.322-0.121 0.655-0.213 0.982-0.322 0.306-0.103 0.348-0.3 0.209-0.584-0.086-0.175-0.134-0.369-0.2-0.555 0.038-0.019 0.076-0.039 0.113-0.058 0.139 0.25 0.277 0.501 0.441 0.794 0.547-0.621 0.749-1.294 0.475-1.976-0.241-0.599-0.114-1.119 0.019-1.674 0.894 0.749 0.994 2.516 0.116 3.451-0.404 0.431-0.42 0.756-0.204 1.266 0.303 0.712 0.455 1.474 0.263 2.263-0.215 0.883-1.038 1.531-1.957 1.535-0.806 0.004-1.45-0.494-1.633-1.264-0.139-0.581 0.084-1.138 0.549-1.371 0.53-0.266 1.090-0.143 1.442 0.316 0.401 0.523 0.259 1.315-0.314 1.721-0.105 0.074-0.221 0.132-0.343 0.204 0.498 0.21 1.269-0.087 1.669-0.616 0.399-0.528 0.425-1.136 0.314-1.744-0.098-0.531-0.28-1.047-0.4-1.481-0.677 0.119-1.264 0.222-1.851 0.325z"></path>
<path fill="#0047ff" style="fill: var(--color1, #0047ff)" d="M25.047 11.554c-0.057-0.456 0.187-0.79 0.73-1.002 0.23 0.421 0.466 0.852 0.698 1.275 0.368-0.562 0.284-0.921-0.366-1.503 0.225-0.221 0.451-0.443 0.689-0.676 0.205 0.085 0.458 0.191 0.72 0.3-0.13-0.339-0.4-0.717-0.31-0.874 0.198-0.343 0.241-0.898 0.794-0.94 0.036 0.172 0.109 0.345 0.101 0.515-0.038 0.869 0.188 1.601 0.884 2.161 0.322 0.259 0.286 0.438-0.076 0.637-1.014 0.558-2.065 0.928-3.24 0.627-0.087-0.022-0.187 0.010-0.282 0.017-0.029-0.030-0.058-0.059-0.086-0.089l-0.001-0.001c-0.041-0.061-0.082-0.121-0.124-0.182-0.031 0.031-0.063 0.062-0.094 0.093-0.014-0.045-0.029-0.091-0.043-0.137 0.001-0.074 0.002-0.149 0.004-0.223l0.001-0.001zM28.074 11.395l0.054-0.080c-0.091-0.32-0.184-0.641-0.275-0.961-0.035-0.010-0.071-0.019-0.106-0.030-0.072 0.219-0.244 0.47-0.189 0.647 0.055 0.18 0.335 0.285 0.517 0.424v-0.001z"></path>
<path fill="#f4f4f4" style="fill: var(--color2, #f4f4f4)" d="M18.912 19.847c0.402 0 0.737-0.040 1.056 0.017 0.168 0.029 0.307 0.227 0.459 0.348-0.156 0.12-0.306 0.33-0.47 0.342-0.56 0.043-1.126 0.034-1.689 0.006-0.164-0.008-0.401-0.104-0.459-0.232-0.054-0.116 0.054-0.354 0.151-0.493 0.445-0.638 0.936-1.244 1.358-1.896 0.177-0.273 0.255-0.63 0.318-0.96 0.059-0.31-0.039-0.598-0.374-0.716-0.33-0.116-0.61-0.021-0.785 0.284-0.134 0.235-0.311 0.435-0.53 0.231-0.116-0.107-0.127-0.442-0.061-0.627 0.169-0.474 0.832-0.75 1.399-0.645 0.604 0.112 1.111 0.615 1.050 1.226-0.056 0.558-0.24 1.125-0.474 1.636-0.231 0.502-0.596 0.94-0.948 1.479v-0.001z"></path>
<path fill="#f4f4f4" style="fill: var(--color2, #f4f4f4)" d="M13.96 14.003c-0.125 0.187-0.213 0.318-0.301 0.449-0.096-0.155-0.192-0.31-0.23-0.371-0.213-0.183-0.393-0.278-0.486-0.429-0.136-0.224-0.194-0.497-0.318-0.73-0.059-0.112-0.193-0.181-0.293-0.27-0.041 0.025-0.083 0.049-0.124 0.074 0 0.32 0.016 0.643-0.010 0.961-0.008 0.097-0.129 0.185-0.199 0.277-0.058-0.090-0.165-0.178-0.167-0.268-0.014-0.699-0.015-1.398 0.002-2.098 0.002-0.094 0.131-0.186 0.201-0.278 0.057 0.090 0.153 0.174 0.165 0.27 0.026 0.204 0.008 0.413 0.008 0.775 0.192-0.131 0.343-0.182 0.409-0.289 0.114-0.186 0.164-0.413 0.268-0.607 0.038-0.072 0.153-0.101 0.233-0.15 0.037 0.1 0.080 0.197 0.106 0.3 0.009 0.035-0.020 0.088-0.045 0.123-0.512 0.729-0.062 1.333 0.219 1.976 0.435-0.272 0.455-0.718 0.524-1.131 0.046-0.277 0.071-0.564 0.060-0.844-0.014-0.364 0.145-0.481 0.47-0.447 0.129 0.014 0.26 0.009 0.39 0.001 0.239-0.015 0.339 0.090 0.334 0.341-0.010 0.521-0.010 1.041 0.003 1.562 0.003 0.115 0.073 0.23 0.118 0.342 0.061 0.15 0.173 0.295 0.18 0.445 0.006 0.151-0.091 0.307-0.143 0.461-0.109-0.121-0.217-0.243-0.398-0.443h-0.974l-0.001 0.001zM14.79 13.517v-1.75h-0.356c-0.098 0.598-0.19 1.164-0.287 1.75h0.642z"></path>
<path fill="#f4f4f4" style="fill: var(--color2, #f4f4f4)" d="M7.262 17.276c-0.041 0.217-0.083 0.434-0.128 0.674-0.306-0.050-0.594-0.097-0.952-0.155 0.066 0.243 0.11 0.405 0.154 0.567-0.033 0.028-0.067 0.055-0.1 0.082-0.121-0.174-0.243-0.349-0.365-0.524-1.073 0.207-1.276 1.256-0.491 2.541-0.723-0.080-1.278-0.854-1.219-1.715 0.054-0.794 0.37-1.436 1.083-1.807 0.368-0.191 0.064-0.43 0.075-0.646 0.062 0 0.125 0 0.188 0 0.039 0.091 0.077 0.182 0.116 0.273 0.020 0.022 0.040 0.045 0.060 0.067 0.102 0.022 0.204 0.058 0.307 0.065 0.284 0.018 0.569 0.018 0.853 0.035 0.331 0.020 0.493 0.188 0.418 0.543z"></path>
<path fill="#f4f4f4" style="fill: var(--color2, #f4f4f4)" d="M7.796 17.352c-0.13 0.639-0.26 1.278-0.389 1.917-0.1 0.493-0.322 0.71-0.771 0.756-0.436 0.044-1.011-0.236-1.151-0.567-0.15-0.355 0.015-0.639 0.322-0.694 0.417-0.075 0.856-0.019 1.379-0.019 0.066-0.399 0.154-0.933 0.243-1.467 0.038-0.206 0.077-0.411 0.116-0.617 0.014-0.063 0.029-0.125 0.043-0.189 0.014-0.042 0.033-0.083 0.042-0.126 0.143-0.638 0.282-0.707 0.808-0.316 0.224 0.167 0.38 0.432 0.56 0.659 0.194 0.246 0.38 0.501 0.582 0.768-0.385 0.068-0.577-0.244-0.764-0.53-0.203-0.309-0.426-0.555-0.855-0.539-0.055 0.326-0.11 0.645-0.164 0.964z"></path>
<path fill="#f4f4f4" style="fill: var(--color2, #f4f4f4)" d="M18.706 12.674c0 0-0.102 0.431-0.217 0.971-0.086 0.14-0.184 0.244-0.269 0.321-0.043-0.127-0.135-0.261-0.121-0.38 0.079-0.663 0.178-1.324 0.29-1.982 0.018-0.108 0.137-0.197 0.209-0.295 0.087 0.084 0.22 0.153 0.252 0.256 0.132 0.416 0.233 0.842 0.44 1.268 0.101-0.389 0.189-0.784 0.312-1.166 0.044-0.135 0.176-0.24 0.268-0.358 0.081 0.122 0.21 0.234 0.233 0.366 0.112 0.643 0.205 1.291 0.281 1.94 0.013 0.11-0.094 0.235-0.145 0.353-0.078-0.1-0.198-0.19-0.225-0.303-0.078-0.339-0.118-0.687-0.274-1.039-0.088 0.336-0.166 0.675-0.27 1.005-0.036 0.115-0.137 0.209-0.208 0.312-0.078-0.088-0.18-0.161-0.235-0.32s-0.323-0.948-0.323-0.948h0.001z"></path>
<path fill="#f4f4f4" style="fill: var(--color2, #f4f4f4)" d="M16.031 13.522h0.526c0-0.496 0-0.995 0-1.493 0-0.134-0.030-0.278 0.009-0.399 0.038-0.118 0.146-0.211 0.223-0.315 0.061 0.103 0.172 0.204 0.176 0.31 0.019 0.505 0.008 1.011 0.010 1.517 0 0.116 0.010 0.231 0.017 0.373 0.161 0.008 0.301 0.015 0.5 0.024 0-0.612-0.013-1.202 0.009-1.791 0.005-0.147 0.12-0.29 0.184-0.435 0.068 0.143 0.189 0.283 0.195 0.427 0.022 0.609 0 1.22 0.014 1.83 0.007 0.306-0.1 0.427-0.405 0.414-0.49-0.020-0.982-0.015-1.473-0.002-0.263 0.007-0.36-0.097-0.356-0.366 0.011-0.654-0.006-1.309 0.012-1.963 0.003-0.115 0.121-0.226 0.185-0.339 0.058 0.116 0.165 0.231 0.168 0.349 0.017 0.606 0.008 1.213 0.008 1.86v0.001z"></path>
<path fill="#f4f4f4" style="fill: var(--color2, #f4f4f4)" d="M15.14 16.75c0.005-0.834 0.365-1.282 1.012-1.261 0.641 0.022 0.99 0.552 0.941 1.43-0.044 0.783-0.446 1.209-1.084 1.147-0.58-0.057-0.874-0.501-0.869-1.317zM16.452 16.783c-0.006-0.103 0.021-0.226-0.025-0.303-0.074-0.124-0.192-0.292-0.302-0.302-0.098-0.008-0.301 0.176-0.3 0.273 0.005 0.305 0.078 0.61 0.149 0.908 0.004 0.016 0.234 0.002 0.339-0.045 0.060-0.026 0.097-0.142 0.116-0.225 0.023-0.098 0.015-0.204 0.022-0.308l0.001 0.001z"></path>
<path fill="#f4f4f4" style="fill: var(--color2, #f4f4f4)" d="M16.82 4.62c-1.101-0.444-2.159-0.869-3.216-1.296-0.255-0.103-0.517-0.194-0.759-0.322-0.088-0.046-0.128-0.185-0.19-0.282 0.1-0.042 0.216-0.142 0.299-0.119 1.295 0.355 2.588 0.72 3.875 1.106 0.093 0.028 0.2 0.231 0.192 0.344-0.013 0.178-0.118 0.351-0.2 0.568z"></path>
<path fill="#f4f4f4" style="fill: var(--color2, #f4f4f4)" d="M25.39 12.093c0.094-0.007 0.195-0.040 0.281-0.017 1.175 0.301 2.226-0.069 3.24-0.627 0.362-0.2 0.398-0.378 0.076-0.637-0.696-0.56-0.922-1.292-0.884-2.161 0.007-0.17-0.065-0.343-0.101-0.515 0.052-0.031 0.104-0.061 0.156-0.092 0.064 0.249 0.177 0.496 0.183 0.746 0.017 0.698 0.241 1.271 0.799 1.691 0.115 0.087 0.217 0.196 0.312 0.307 0.232 0.272 0.241 0.574-0.059 0.765-1.167 0.743-2.41 1.13-3.786 0.717-0.082-0.025-0.145-0.116-0.216-0.176v0.001z"></path>
<path fill="#f4f4f4" style="fill: var(--color2, #f4f4f4)" d="M23.485 26.667c0.003-0.931 0.192-1.114 1.107-1.097 0.48 0.009 0.961 0.002 1.429 0.002-0.081 0.626-1.241 1.357-2.082 1.141-0.148-0.038-0.307-0.035-0.461-0.051l0.006 0.006h0.001z"></path>
<path fill="#f4f4f4" style="fill: var(--color2, #f4f4f4)" d="M7.303 11.566c-0.010-0.011-0.026-0.019-0.030-0.032-0.3-0.975-0.376-0.762 0.467-1.197 0.471-0.244 0.95-0.472 1.47-0.729 0.11 0.392 0.202 0.722 0.294 1.052-0.065 0.003-0.13 0.005-0.196 0.008-0.048-0.101-0.095-0.201-0.166-0.353-0.538 0.27-1.072 0.521-1.583 0.812-0.089 0.051-0.084 0.276-0.121 0.421-0.045 0.006-0.090 0.012-0.135 0.018z"></path>
<path fill="#f4f4f4" style="fill: var(--color2, #f4f4f4)" d="M11.99 2.14c0.014-0.096 0.005-0.207 0.050-0.283 0.035-0.058 0.139-0.098 0.212-0.098 0.057 0 0.113 0.075 0.169 0.116-0.26 0.287 0.384 0.868-0.31 1.014-0.080 0.76-0.579 0.028-0.813 0.243-0.069-0.080-0.212-0.182-0.197-0.237 0.122-0.437 0.265-0.868 0.427-1.289 0.020-0.052 0.19-0.042 0.292-0.061 0.014 0.099 0.035 0.197 0.038 0.296s-0.013 0.198-0.021 0.297c0.050 0.001 0.101 0.002 0.152 0.003v-0.001z"></path>
<path fill="#f4f4f4" style="fill: var(--color2, #f4f4f4)" d="M16.094 19.197c-0.188 0-0.387 0.039-0.559-0.014-0.123-0.038-0.298-0.209-0.29-0.306 0.011-0.138 0.16-0.363 0.268-0.375 0.399-0.044 0.808-0.044 1.207 0.003 0.112 0.013 0.263 0.235 0.276 0.373 0.009 0.094-0.175 0.267-0.299 0.302-0.188 0.052-0.4 0.014-0.602 0.014 0 0.001 0 0.002 0 0.003l-0.001-0.001z"></path>
<path fill="#f4f4f4" style="fill: var(--color2, #f4f4f4)" d="M7.303 11.566c0.045-0.006 0.090-0.012 0.135-0.018 0.188 0.546 0.416 1.082 0.541 1.643 0.044 0.199-0.111 0.531-0.279 0.669-0.173 0.141-0.496 0.209-0.711 0.148-0.281-0.080-0.259-0.401-0.093-0.588 0.193-0.218 0.461-0.367 0.732-0.573-0.096-0.378-0.21-0.83-0.325-1.282h-0.001z"></path>
<path fill="#f4f4f4" style="fill: var(--color2, #f4f4f4)" d="M9.307 10.668c0.065-0.003 0.13-0.005 0.196-0.008 0.159 0.515 0.356 1.023 0.458 1.549 0.038 0.196-0.088 0.511-0.243 0.639-0.176 0.145-0.482 0.226-0.706 0.184-0.295-0.054-0.302-0.376-0.146-0.567 0.19-0.233 0.466-0.392 0.771-0.635-0.091-0.321-0.21-0.742-0.329-1.162z"></path>
<path fill="#f4f4f4" style="fill: var(--color2, #f4f4f4)" d="M10.442 5.033c-0.154-0.069-0.368-0.183-0.149-0.507 0.021-0.030 0.018-0.086 0.010-0.127-0.024-0.127-0.056-0.253-0.085-0.38 0.151 0.054 0.32 0.080 0.45 0.167 0.22 0.149 0.415 0.336 0.653 0.535-0.341 0.12-0.573 0.202-0.879 0.31z"></path>
<path fill="#f4f4f4" style="fill: var(--color2, #f4f4f4)" d="M11.195 1.92c-0.201 0.24-0.355 0.425-0.509 0.61-0.104-0.163-0.324-0.369-0.285-0.479 0.063-0.183 0.286-0.316 0.462-0.438 0.023-0.016 0.168 0.153 0.332 0.308z"></path>
<path fill="#0047ff" style="fill: var(--color1, #0047ff)" d="M7.588 16.472c-0.014 0.063-0.029 0.125-0.043 0.189-0.062-0.029-0.125-0.058-0.271-0.127 0.167-0.033 0.241-0.047 0.314-0.062v0.001z"></path>
<path fill="#f4f4f4" style="fill: var(--color2, #f4f4f4)" d="M25.045 11.554c-0.001 0.074-0.002 0.149-0.004 0.223-0.057-0.074-0.113-0.149-0.169-0.223 0.058 0 0.116 0 0.173 0v0.001z"></path>
<path fill="#0047ff" style="fill: var(--color1, #0047ff)" d="M23.164 18.346c-0.008 0.061-0.016 0.123-0.024 0.184 0.008-0.061 0.016-0.122 0.024-0.184z"></path>
<path fill="#f4f4f4" style="fill: var(--color2, #f4f4f4)" d="M27.982 7.891c-0.042-0.027-0.083-0.054-0.125-0.080 0.033-0.035 0.066-0.070 0.099-0.105 0.009 0.062 0.017 0.124 0.025 0.186h0.001z"></path>
<path fill="#0047ff" style="fill: var(--color1, #0047ff)" d="M21.080 26.040c0.083 0.409 0.026 0.617-0.389 0.647-1.181 0.085-2.359 0.248-3.541 0.302-2.572 0.118-5.146 0.189-7.719 0.274-0.152 0.005-0.306-0.019-0.461-0.105 4.017-0.625 8.048-1.032 12.109-1.119v0.001z"></path>
<path fill="#0047ff" style="fill: var(--color1, #0047ff)" d="M15.984 25.123c-0.402-0.068-0.716-0.104-1.020-0.183-0.104-0.027-0.243-0.158-0.252-0.254-0.009-0.094 0.106-0.253 0.203-0.296 0.781-0.338 1.584-0.423 2.396-0.125 0.101 0.037 0.209 0.167 0.23 0.273 0.013 0.064-0.122 0.21-0.213 0.236-0.466 0.137-0.94 0.246-1.344 0.348v0.001z"></path>
<path fill="#0047ff" style="fill: var(--color1, #0047ff)" d="M19.625 28.423c0.701-0.13 1.477 0.007 2.028-0.758 0.138 0.132 0.263 0.252 0.389 0.372-0.12 0.129-0.217 0.32-0.363 0.376-0.677 0.264-1.367 0.347-2.053 0.009v0.001z"></path>
<path fill="#0047ff" style="fill: var(--color1, #0047ff)" d="M16.086 29.198c0.339-0.040 0.683-0.051 1.012-0.13 0.212-0.051 0.397-0.216 0.606-0.299 0.105-0.042 0.236-0.014 0.355-0.018-0.008 0.125 0.032 0.299-0.033 0.368-0.361 0.382-1.482 0.414-1.94 0.078l-0.001 0.001z"></path>
<path fill="#0047ff" style="fill: var(--color1, #0047ff)" d="M12.917 28.975c0.438-0.115 0.921-0.241 1.494-0.391-0.002 0.050 0.041 0.225-0.023 0.295-0.257 0.277-1.178 0.295-1.471 0.097z"></path>
<path fill="#0047ff" style="fill: var(--color1, #0047ff)" d="M11.538 27.887c-0.080 0.44-0.66 0.576-1.22 0.298 0.397-0.097 0.793-0.194 1.22-0.298z"></path>
<path fill="#0047ff" style="fill: var(--color1, #0047ff)" d="M24.679 18.545c0.328 0.449 0.673 0.904 0.996 1.374 0.066 0.097 0.086 0.255 0.071 0.378-0.034 0.293-0.113 0.581-0.155 0.874-0.122 0.844-0.625 1.010-1.351 0.934-0.762-0.080-1.091-0.466-1.082-1.274 0.006-0.533-0.121-1.183 0.127-1.563 0.245-0.376 0.886-0.48 1.394-0.723h0.001z"></path>
<path fill="#0047ff" style="fill: var(--color1, #0047ff)" d="M24.948 17.15c-0.466-0.561-0.698-1.075-0.707-1.707 0.553 0.126 1.074 0.243 1.703 0.386-0.322 0.426-0.633 0.839-0.995 1.32v0.001z"></path>
<path fill="#0047ff" style="fill: var(--color1, #0047ff)" d="M25.941 20.735c0.027-0.515 0.054-1.031 0.084-1.597 0.231 0.115 0.432 0.216 0.673 0.337-0.218 0.444-0.427 0.869-0.636 1.295-0.041-0.012-0.081-0.024-0.121-0.035z"></path>
<path fill="#0047ff" style="fill: var(--color1, #0047ff)" d="M27.009 15.205c-0.274 0.197-0.467 0.336-0.673 0.484-0.093-0.52-0.021-0.579 0.673-0.484z"></path>
<path fill="#0047ff" style="fill: var(--color1, #0047ff)" d="M23.194 8.032c0.713 0.824 1.527 1.386 2.617 1.407-0.378 0.594-1.057 0.826-1.638 0.594-0.664-0.266-1.102-1.116-0.979-2h0.001z"></path>
<path fill="#0047ff" style="fill: var(--color1, #0047ff)" d="M25.39 7.953c0.271-0.11 0.585-0.362 0.801-0.292 0.252 0.081 0.418 0.444 0.561 0.775-0.407-0.316-0.822-0.44-1.305-0.278-0.019-0.068-0.038-0.137-0.057-0.205z"></path>
<path fill="#0047ff" style="fill: var(--color1, #0047ff)" d="M23.137 6.565c0.432-0.257 0.744-0.293 1.050-0.044 0.295 0.241 0.33 0.547 0.156 0.931-0.181-0.554-0.627-0.739-1.206-0.887z"></path>
<path fill="#0047ff" style="fill: var(--color1, #0047ff)" d="M4.454 7.703c1.473 1.251 1.384 3.537-0.192 4.982-0.563-1.105-0.778-3.981 0.192-4.982z"></path>
<path fill="#0047ff" style="fill: var(--color1, #0047ff)" d="M18.306 5.235c0.121-0.377 0.221-0.688 0.35-1.084 0.285 0.718 0.264 0.78-0.35 1.084z"></path>
<path fill="#0047ff" style="fill: var(--color1, #0047ff)" d="M9.468 6.901c0.225 0.331 0.175 0.622-0.042 0.88-0.229 0.271-0.515 0.245-0.784 0.068-0.34-0.224-0.682-0.451-0.998-0.708-0.459-0.375-0.53-0.954-0.206-1.432 0.328-0.486 0.848-0.587 1.367-0.26 0.16 0.101 0.317 0.209 0.461 0.332 0.051 0.044 0.059 0.142 0.087 0.215-0.085 0.002-0.178 0.028-0.253 0.001-0.093-0.033-0.166-0.116-0.255-0.167-0.366-0.21-0.726-0.143-0.967 0.174-0.25 0.329-0.222 0.737 0.072 1.049 0.513 0.544 0.887 0.516 1.518-0.151l-0.001-0.001z"></path>
<path fill="#0047ff" style="fill: var(--color1, #0047ff)" d="M8.662 6.984c-0.171-0.214-0.308-0.369-0.414-0.544-0.011-0.018 0.211-0.243 0.244-0.224 0.174 0.101 0.322 0.25 0.479 0.382-0.085 0.106-0.17 0.212-0.309 0.386z"></path>
<path fill="#f4f4f4" style="fill: var(--color2, #f4f4f4)" d="M28.072 11.395c-0.181-0.138-0.461-0.244-0.517-0.424-0.055-0.177 0.117-0.428 0.189-0.647 0.035 0.010 0.071 0.019 0.106 0.030 0.091 0.32 0.184 0.641 0.275 0.961l-0.054 0.080v0.001z"></path>
<path fill="#0047ff" style="fill: var(--color1, #0047ff)" d="M14.791 13.517h-0.642c0.096-0.586 0.189-1.152 0.287-1.75h0.356v1.75z"></path>
<path fill="#0047ff" style="fill: var(--color1, #0047ff)" d="M16.453 16.783c-0.006 0.103 0.001 0.209-0.022 0.308-0.020 0.082-0.056 0.198-0.116 0.225-0.106 0.046-0.336 0.061-0.339 0.045-0.070-0.299-0.144-0.604-0.149-0.908-0.002-0.097 0.202-0.282 0.3-0.273 0.11 0.009 0.227 0.177 0.302 0.302 0.046 0.077 0.019 0.201 0.025 0.303v-0.001z"></path>
<path fill="#f4f4f4" style="fill: var(--color2, #f4f4f4)" d="M25.566 12.26c0.586 0.176 0.382-0.083 0.070-0.191s-0.402-0.193-0.596-0.546c-0.195-0.353-0.221-0.165-0.17 0.030 0.029 0.069 0.11 0.53 0.696 0.707z"></path>
</symbol>
<symbol id="icon-success" viewBox="0 0 32 32">
<path fill="#7574fc" style="fill: var(--color1, #7574fc)" d="M28.8 8.392c-0.132 0.218-0.282 0.424-0.448 0.616l-15.937 16.184c-0.082 0.125-0.193 0.228-0.323 0.3s-0.276 0.108-0.424 0.108c-0.148 0-0.294-0.037-0.424-0.108s-0.242-0.174-0.323-0.3c-2.99-3.132-5.98-6.269-8.97-9.411-0.113-0.086-0.204-0.199-0.264-0.328s-0.090-0.272-0.085-0.415c0.005-0.143 0.044-0.283 0.114-0.408s0.168-0.23 0.287-0.308l2.243-2.060c0.081-0.103 0.183-0.186 0.299-0.243s0.244-0.087 0.373-0.087c0.129 0 0.257 0.030 0.373 0.087s0.219 0.14 0.299 0.243l5.3 5.489c0.553 0.57 0.964 0.578 1.495 0l12.379-12.536c0.081-0.127 0.191-0.232 0.322-0.304s0.277-0.11 0.426-0.11 0.295 0.038 0.426 0.11c0.131 0.072 0.241 0.177 0.322 0.304 0.703 0.715 1.405 1.429 2.093 2.151 0.159 0.189 0.304 0.39 0.434 0.601l0.015 0.426z"></path>
</symbol>
</defs>
</svg>
