<svg width="13" height="14" viewBox="0 0 13 14" fill="none" xmlns="http://www.w3.org/2000/svg">
<path d="M2.3983 4.73753C2.34659 4.68867 2.28576 4.65046 2.21928 4.6251C2.1528 4.59974 2.08198 4.58773 2.01086 4.58974C1.93973 4.59175 1.8697 4.60775 1.80477 4.63683C1.73983 4.6659 1.68125 4.70749 1.63238 4.7592C1.58352 4.81091 1.54531 4.87175 1.51995 4.93822C1.4946 5.0047 1.48258 5.07552 1.48459 5.14665C1.4866 5.21777 1.5026 5.2878 1.53168 5.35274C1.56076 5.41767 1.60234 5.47625 1.65405 5.52512L6.52905 10.1293C6.62962 10.2244 6.76277 10.2773 6.90118 10.2773C7.03958 10.2773 7.17273 10.2244 7.2733 10.1293L12.1488 5.52512C12.2017 5.47657 12.2444 5.41801 12.2744 5.35283C12.3044 5.28765 12.3212 5.21716 12.3237 5.14545C12.3263 5.07374 12.3145 5.00223 12.2892 4.93509C12.2639 4.86794 12.2255 4.8065 12.1762 4.75433C12.127 4.70215 12.0678 4.66029 12.0022 4.63117C11.9367 4.60204 11.8659 4.58624 11.7942 4.58468C11.7225 4.58312 11.6511 4.59582 11.5843 4.62206C11.5175 4.6483 11.4566 4.68755 11.4051 4.73753L6.90118 8.9907L2.3983 4.73753Z" fill="#3C4242"/>
</svg>
