<svg width="16" height="16" viewBox="0 0 16 16" fill="none" xmlns="http://www.w3.org/2000/svg">
<path d="M1.5 3.66797H2.94444H14.5" stroke="#FF3232" stroke-width="1.5" stroke-linecap="round" stroke-linejoin="round"/>
<path d="M13.0564 3.66819V13.7793C13.0564 14.1624 12.9042 14.5298 12.6334 14.8007C12.3625 15.0716 11.9951 15.2237 11.612 15.2237H4.38976C4.00667 15.2237 3.63927 15.0716 3.36838 14.8007C3.09749 14.5298 2.94531 14.1624 2.94531 13.7793V3.66819M5.11198 3.66819V2.22374C5.11198 1.84065 5.26416 1.47325 5.53505 1.20236C5.80593 0.931479 6.17333 0.779297 6.55642 0.779297H9.44531C9.8284 0.779297 10.1958 0.931479 10.4667 1.20236C10.7376 1.47325 10.8898 1.84065 10.8898 2.22374V3.66819" stroke="#FF3232" stroke-width="1.5" stroke-linecap="round" stroke-linejoin="round"/>
<path d="M6.55469 7.2793V11.6126" stroke="#FF3232" stroke-width="1.5" stroke-linecap="round" stroke-linejoin="round"/>
<path d="M9.44531 7.2793V11.6126" stroke="#FF3232" stroke-width="1.5" stroke-linecap="round" stroke-linejoin="round"/>
</svg>
