<svg width="90" height="90" viewBox="0 0 90 90" fill="none" xmlns="http://www.w3.org/2000/svg">
<path d="M81 23.6021C80.6275 24.214 80.2057 24.7932 79.7386 25.3339L34.9161 70.8526C34.686 71.2054 34.3736 71.4948 34.0067 71.695C33.6399 71.8952 33.2301 72 32.8138 72C32.3974 72 31.9876 71.8952 31.6208 71.695C31.254 71.4948 30.9415 71.2054 30.7114 70.8526C22.3019 62.0439 13.8925 53.2209 5.48298 44.3837C5.16564 44.1415 4.91064 43.8247 4.73976 43.4605C4.56888 43.0963 4.48718 42.6954 4.50163 42.2921C4.51609 41.8888 4.62627 41.4951 4.82278 41.1445C5.01929 40.7939 5.29628 40.4969 5.63013 40.2787L11.9372 34.4847C12.1637 34.1952 12.4514 33.9614 12.779 33.8007C13.1066 33.64 13.4657 33.5565 13.8294 33.5565C14.1931 33.5565 14.5521 33.64 14.8797 33.8007C15.2073 33.9614 15.4951 34.1952 15.7215 34.4847L30.6273 49.9212C32.183 51.5248 33.3393 51.5461 34.832 49.9212L69.6472 14.6651C69.874 14.3077 70.1852 14.0137 70.5524 13.8102C70.9197 13.6066 71.3313 13.5 71.7496 13.5C72.1679 13.5 72.5795 13.6066 72.9467 13.8102C73.314 14.0137 73.6252 14.3077 73.852 14.6651C75.8282 16.6749 77.8045 18.6846 79.7386 20.7157C80.1851 21.2477 80.5926 21.8123 80.958 22.4048L81 23.6021Z" fill="#7574FC"/>
</svg>
