<svg width="79" height="32" viewBox="0 0 79 32" fill="none" xmlns="http://www.w3.org/2000/svg">
<g clip-path="url(#clip0_1877_1745)">
<path d="M10.6153 5.29407L10.6272 5.23807L10.6588 5.00207L9.19729 4.99407C7.87799 4.98607 7.47312 4.99407 7.43757 5.02807C7.41979 5.04407 6.96357 6.79807 6.15184 9.97407C5.76474 11.4901 5.43887 12.7001 5.42702 12.6641C5.41517 12.6281 4.95302 10.8981 4.39607 8.82007C4.06261 7.54955 3.71763 6.28217 3.36117 5.01807C3.34142 4.99807 1.57182 4.99007 0.137969 5.00207C-0.069406 5.00407 -0.185931 4.59207 1.99052 11.6001C2.29072 12.5701 2.74299 13.9441 2.99184 14.6521C3.28019 15.4681 3.48559 16.1001 3.62582 16.6261C3.87467 17.6281 3.88257 18.2561 3.82924 18.9901C3.76604 19.8361 3.75814 25.8161 3.81937 25.9161C3.86677 25.9921 6.63374 26.0281 6.89642 25.9561C6.93789 25.9441 6.96554 25.9041 6.98529 25.6781C7.05047 25.4841 7.05639 24.7101 7.05639 21.4981V17.3961L7.23414 16.8301C7.35067 16.4601 7.64099 15.4861 7.88194 14.6661L8.52777 12.4861C9.57254 9.03807 10.5679 5.64807 10.5956 5.45407L10.6173 5.29607L10.6153 5.29407ZM26.1112 10.2701V10.4841H26.0776L26.0598 16.3901L26.0421 22.1161L25.5898 22.5821C25.0822 23.1041 24.6773 23.3041 24.31 23.2101C23.9091 23.1081 23.9209 23.2661 23.8873 16.4981L23.8557 10.2681H20.9446V10.4821H20.911V17.2421C20.911 24.4841 20.911 24.4801 21.2744 25.2061C21.5628 25.7861 21.9854 26.0681 22.7063 26.1641C23.6563 26.2921 24.6813 25.8561 25.6313 24.9201L26.044 24.5141V25.2161C26.044 25.8221 26.0618 25.9221 26.1704 25.9521C26.3482 26.0021 28.5523 26.0061 28.7893 25.9561L28.9868 25.9141V25.7061L29.0204 25.7001V10.2281L26.1132 10.2681L26.1112 10.2701ZM18.7286 13.3221C18.4521 12.1241 17.9367 11.3181 17.0854 10.7621C15.7503 9.88807 14.2237 9.79407 12.8096 10.5021C11.7786 11.0181 11.113 11.8741 10.7714 13.1301C10.7275 13.2811 10.6964 13.4357 10.6785 13.5921C10.5916 14.0361 10.5818 14.6961 10.5581 17.7781C10.5225 22.5261 10.5778 23.0901 11.1644 24.1681C11.7411 25.2261 12.936 26.0021 14.2375 26.1621C14.6285 26.2101 15.4225 26.1361 15.8807 26.0061C16.9176 25.7141 17.913 24.8841 18.3534 23.9421C18.5473 23.5649 18.6737 23.1559 18.7267 22.7341C18.855 22.0281 18.8649 20.8841 18.8649 17.9721C18.8649 14.2581 18.8531 13.8521 18.7306 13.3201L18.7286 13.3221ZM15.4087 23.0001C15.1085 23.1988 14.7428 23.2692 14.3915 23.1961C14.1249 23.1381 13.7635 22.7141 13.6529 22.3281C13.5146 21.8461 13.5048 15.1401 13.6233 13.8261C13.8208 13.1681 14.3698 12.8241 14.9702 12.9881C15.4383 13.1161 15.6773 13.4121 15.8135 14.0341C15.9143 14.4961 15.9261 15.0701 15.9044 18.4481C15.8906 20.6881 15.8827 21.7841 15.8096 22.3721C15.7365 22.7421 15.6141 22.8421 15.4087 23.0021V23.0001ZM70.9891 16.6921H72.3953L72.3736 15.4021C72.3519 14.2181 72.3341 14.0841 72.1781 13.7621C71.9312 13.2561 71.5678 13.0301 70.9911 13.0301C70.2979 13.0301 69.8594 13.3701 69.652 14.0661C69.5632 14.3621 69.4703 16.4001 69.5375 16.5761C69.575 16.6741 69.7765 16.6921 70.9891 16.6921ZM61.5881 13.7581C61.5044 13.5803 61.3698 13.4321 61.2018 13.3329C61.0337 13.2337 60.8401 13.1881 60.646 13.2021C60.2785 13.2305 59.9284 13.3722 59.6427 13.6081L59.3919 13.8021V23.0701L59.6427 23.2641C60.2115 23.7041 60.8356 23.7961 61.2662 23.5041C61.4446 23.3766 61.5743 23.1909 61.6335 22.9781C61.7461 22.6501 61.756 22.2281 61.7422 18.3281C61.7264 14.2641 61.7185 14.0241 61.5881 13.7581Z" fill="black"/>
<path d="M79.0272 9.58194C78.7467 6.17994 78.5236 5.07594 77.8323 3.65794C76.914 1.77994 75.5887 0.789938 73.7006 0.571938C72.2411 0.403938 66.7467 0.165938 61.665 0.0519382C52.8644 -0.146062 38.3955 0.235938 36.5469 0.713938C35.7219 0.91898 34.9721 1.35899 34.3863 1.98194C33.219 3.15794 32.5219 4.84594 32.2434 7.18194C31.6055 12.5139 31.5916 18.9539 32.2059 24.4799C32.4705 26.8559 33.0156 28.3999 34.0387 29.6719C34.6766 30.4659 35.7787 31.1399 36.7622 31.3419C37.4535 31.4839 40.9097 31.6799 45.946 31.8619C46.6965 31.8899 48.6813 31.9359 50.3601 31.9659C53.8558 32.0279 60.2844 31.9919 63.9599 31.8879C66.4326 31.8179 70.9396 31.6319 71.7829 31.5659C72.0199 31.5479 72.569 31.5119 73.0035 31.4879C74.463 31.4039 75.3912 31.0959 76.2622 30.4019C77.3899 29.5039 78.2629 27.8459 78.6322 25.8999C78.9818 24.0599 79.2148 20.7819 79.2622 17.0599C79.3017 13.9499 79.2484 12.2739 79.0272 9.57794V9.58194ZM43.9828 8.34994L42.3475 8.36994L42.2764 26.0299L40.8583 26.0479C39.7622 26.0639 39.4285 26.0459 39.4028 25.9759C39.383 25.9259 39.3613 21.9439 39.3514 17.1279L39.3337 8.36994L36.1401 8.32994V5.56994L45.5786 5.60794L45.6181 8.32794L43.9828 8.34794V8.34994ZM54.0099 18.4719V26.0659H51.4266V25.2659C51.4266 24.6639 51.4049 24.4659 51.3338 24.4659C51.2824 24.4659 51.0494 24.6639 50.8143 24.9059C50.3028 25.4319 49.6985 25.8539 49.181 26.0499C48.1106 26.4559 47.0954 26.2179 46.6629 25.4639C46.2659 24.7739 46.26 24.6179 46.26 17.4539V10.8739H48.8413L48.861 17.0699C48.8808 23.1579 48.8828 23.2699 49.0269 23.5179C49.2185 23.8459 49.5089 23.9359 49.971 23.8059C50.2436 23.7299 50.4292 23.5959 50.8696 23.1519L51.4266 22.5919V10.8739H54.0099V18.4679V18.4719ZM64.0863 24.9819C63.8592 25.4959 63.3516 25.9979 62.9349 26.1219C61.8506 26.4459 60.9797 26.1819 59.9744 25.2239C59.6623 24.9259 59.372 24.6859 59.3286 24.6859C59.2752 24.6859 59.2476 24.9179 59.2476 25.3759V26.0659H56.6643V5.56994H59.2476V8.91394C59.2476 10.7519 59.2713 12.2579 59.3009 12.2579C59.3305 12.2579 59.6031 12.0139 59.9072 11.7179C60.6064 11.0359 61.189 10.7359 61.9296 10.6799C63.2509 10.5779 64.0389 11.2679 64.3984 12.8399C64.5109 13.3299 64.5208 13.8899 64.5208 18.4359C64.5208 23.9719 64.5228 23.9959 64.0863 24.9819ZM75.018 21.9419C75.0046 22.4299 74.9537 22.916 74.8659 23.3959C74.5064 24.7439 73.5505 25.6999 72.168 26.0919C70.3076 26.6199 68.2575 25.7559 67.4399 24.0979C66.9817 23.1679 66.9639 22.9819 66.9639 18.4359C66.9639 14.7299 66.9777 14.2739 67.0942 13.7679C67.4261 12.3379 68.2477 11.4119 69.64 10.8979C70.0429 10.7499 70.4636 10.6719 70.8843 10.6639C72.3872 10.6319 73.8764 11.4499 74.5025 12.7819C74.9231 13.6799 74.9765 14.0659 75.018 16.5979L75.0555 18.8699L69.5472 18.9079L69.5274 20.4339C69.4978 22.5879 69.642 23.2499 70.2167 23.6399C70.6986 23.9699 71.4412 23.9439 71.8441 23.5859C72.2233 23.2499 72.33 22.8879 72.3675 21.8319L72.4011 20.9059H75.0614L75.018 21.9419Z" fill="black"/>
</g>
<defs>
<clipPath id="clip0_1877_1745">
<rect width="79" height="32" fill="white"/>
</clipPath>
</defs>
</svg>
