<svg width="542" height="229" viewBox="0 0 542 229" fill="none" xmlns="http://www.w3.org/2000/svg">
<g clip-path="url(#clip0_1385_15279)">
<path d="M206.075 29.7929C207.967 27.8908 213.048 23.4 220.716 22.5928C227.856 21.8413 233.336 24.8846 235.543 25.8681C245.649 30.3959 255.497 53.2857 258.955 58.3517C262.414 63.4085 265.603 69.0033 273.587 64.7446C281.57 60.4858 281.57 57.0249 279.975 48.2383C278.381 39.4517 272.261 22.9454 277.045 13.101C281.83 3.24737 288.747 0.584475 297.268 0.0556066C305.78 -0.473262 314.83 3.81336 318.288 10.9856C321.747 18.1577 305.252 45.0465 304.454 50.3723C303.657 55.6981 301.793 59.9569 305.52 64.2157C309.248 68.4745 312.966 70.3394 315.896 61.8219C318.826 53.3043 321.218 33.8661 337.176 40.2589C353.143 46.6517 344.362 61.293 340.903 64.4848C337.445 67.6765 330.528 76.1941 334.255 82.058C337.983 87.9127 343.833 85.788 351.548 78.0683C359.263 70.3487 377.353 70.6178 378.419 82.856C379.485 95.0942 376.555 103.092 353.681 106.015C346.764 107.611 345.438 111.072 345.697 114.004C345.966 116.936 350.751 120.656 356.87 121.194C362.99 121.723 387.469 128.116 383.472 145.151C379.485 162.186 366.449 163.253 356.601 158.466C346.754 153.678 331.594 148.881 324.677 153.938C317.76 158.994 313.235 166.983 315.627 181.096C318.019 195.208 324.408 198.131 322.813 209.051C321.218 219.963 316.425 229.288 303.926 229.018C291.417 228.749 279.716 222.366 280.513 206.658C281.311 190.949 286.633 187.488 285.038 177.635C283.443 167.781 272.001 163.263 264.287 172.04C256.572 180.827 247.263 207.715 229.701 211.445C212.139 215.175 202.033 196.804 210.016 180.827C217.999 164.849 230.498 160.859 234.754 151.804C239.01 142.748 240.346 133.432 224.379 131.308C208.412 129.174 188.458 135.836 177.025 133.971C165.583 132.106 158.119 122.521 158.119 110.543C158.119 98.5643 168.244 90.3065 180.753 91.1045C193.261 91.9024 202.57 95.6323 210.813 92.9694C215.394 91.4942 219.158 90.0096 220.596 86.9756C222.255 83.4591 220.512 79.4044 218.797 75.9343C209.395 56.8486 198.871 53.36 199.047 43.562C199.167 36.7702 204.332 31.5836 206.094 29.8114L206.075 29.7929Z" fill="#D66600"/>
<path d="M354.33 59.2796C354.33 59.2796 357.26 35.1836 373.616 32.3908C389.972 29.598 398.892 42.6435 387.58 50.7621C376.268 58.8806 369.657 57.8136 365.234 59.2796C360.811 60.7456 357.12 64.8745 355.127 64.0673C353.133 63.26 354.33 59.2796 354.33 59.2796Z" fill="#D66600"/>
<path d="M338.493 174.155C347.542 174.109 375.072 176.549 369.62 199.847C365.892 212.494 349.87 209.395 346.606 203.308C343.351 197.221 344.241 190.532 343.546 188.138C342.851 185.744 338.891 179.221 337.695 178.024C336.499 176.828 334.7 173.719 338.493 174.165V174.155Z" fill="#D66600"/>
<path d="M212.26 141.161C213.744 141.44 215.932 141.857 216.275 143.128C216.442 143.741 216.127 144.316 214.458 146.654C212.909 148.816 212.131 149.902 211.778 150.329C209.052 153.65 208.848 154.708 206.539 155.988C204.231 157.269 199.01 158.865 196.229 155.988C193.911 153.595 194.55 147.666 196.692 145.337C198.834 143.008 201.532 142.331 203.072 141.82C204.333 141.403 207.93 140.336 212.26 141.161Z" fill="#D66600"/>
<path d="M241.264 43.8868C240.16 44.9075 237.443 43.525 234.847 42.3095C229.275 39.6837 226.493 38.3662 224.787 38.0415C219.789 37.0858 215.144 38.7002 212.214 36.5476C212.093 36.4548 211.87 36.2878 211.796 36.0095C211.249 34.0517 217.888 27.6497 224.638 28.6424C231.945 29.7187 236.785 34.293 237.953 35.6755C239.4 37.3827 241.727 39.5446 241.727 42.3281C241.727 43.3672 241.43 43.7384 241.254 43.8961L241.264 43.8868Z" fill="#F4F4F4"/>
<path d="M307.654 29.3196C310.203 24.6989 310.472 19.0948 307.774 14.6319C306.541 12.6092 304.547 11.5607 302.813 10.0576C301.033 8.59163 298.9 7.26482 296.276 5.53904C296.11 5.44626 296.045 5.22358 296.156 5.06585C299.086 3.35862 302.721 3.69264 305.762 5.01945C311.613 7.82153 314.098 16.07 312.577 22.0453C311.826 25.0422 310.241 27.733 308.117 29.6907C307.876 29.9134 307.496 29.6165 307.663 29.3288L307.654 29.3196Z" fill="#F4F4F4"/>
<path d="M364.613 156.211C369.935 154.04 374.534 148.612 373.301 142.711C372.596 139.185 371.984 136.689 370.594 132.755C370.529 132.588 370.603 132.393 370.779 132.338C375.397 133.061 378.948 137.83 378.642 142.479C378.271 146.942 376.064 151.349 372.383 153.928C370.065 155.58 367.385 156.554 364.724 156.731C364.427 156.749 364.325 156.313 364.604 156.202L364.613 156.211Z" fill="#F4F4F4"/>
<path d="M205.964 41.4744C206.159 42.6621 207.309 43.5713 208.412 43.5713C209.228 43.5713 209.812 43.0703 210.109 42.8198C210.378 42.5878 211.315 41.7899 211.25 40.7229C211.175 39.5074 209.85 38.3754 208.449 38.4682C206.975 38.5703 205.723 40.0084 205.964 41.4651V41.4744Z" fill="#F4F4F4"/>
<path d="M368.544 81.0189C369.378 81.4736 370.491 81.2045 371.019 80.5179C371.409 80.0169 371.39 79.4138 371.372 79.1076C371.362 78.8292 371.325 77.8643 370.63 77.3911C369.851 76.8529 368.507 77.122 367.885 78.0313C367.236 78.987 367.514 80.4622 368.534 81.0189H368.544Z" fill="#F4F4F4"/>
<path d="M331.9 44.0352C334.654 43.6548 337.491 45.0187 338.734 47.5053C339.466 49.2033 340.06 51.0404 339.995 52.9146C339.911 55.5311 338.326 58.0178 336.388 59.5023C336.193 59.66 335.915 59.4281 336.026 59.2147C337.575 56.1621 337.751 52.3672 334.96 50.1218C333.328 48.4981 332.642 46.9858 331.678 44.4435C331.603 44.2672 331.715 44.0723 331.9 44.0352Z" fill="#F4F4F4"/>
<path d="M380.496 51.1889C380.144 51.0126 380.005 50.6507 379.958 50.5301C379.346 48.9435 382.1 47.7558 382.619 44.9631C382.916 43.3579 382.462 41.2981 381.562 39.7857C380.923 38.7094 379.884 37.6331 380.19 36.3805C380.246 36.1579 380.311 35.8609 380.542 35.6661C381.674 34.7104 386.254 36.4455 387.552 39.8135C388.73 42.8476 386.718 45.8631 385.781 47.2734C384.372 49.3888 381.739 51.8198 380.487 51.1889H380.496Z" fill="white"/>
<path d="M371.632 84.0715C373.885 85.7044 374.998 88.6457 374.173 91.2993C373.533 93.0344 372.689 94.7787 371.354 96.087C369.481 97.9241 366.625 98.62 364.205 98.3602C363.964 98.3416 363.917 97.9798 364.14 97.8963C367.367 96.755 370.111 94.1385 369.638 90.5849C369.583 88.2838 370.121 86.7158 371.187 84.2106C371.252 84.0343 371.474 83.9694 371.632 84.0715Z" fill="#F4F4F4"/>
<path d="M0.5 146.237V135.492C0.5 130.194 2.36373 125.499 6.10045 121.398L65.7675 53.5641C69.0777 49.8899 73.7695 48.0249 79.8521 47.96H108.105C110.571 47.96 112.648 48.8043 114.336 50.493C116.023 52.1816 116.867 54.195 116.867 56.5425V129.164H126.798C129.264 129.164 131.341 130.009 133.029 131.697C134.716 133.386 135.56 135.4 135.56 137.747V146.237C135.56 148.584 134.688 150.588 132.945 152.24C131.202 153.901 129.153 154.726 126.807 154.726H116.876V168.997C116.876 171.344 116.005 173.348 114.262 175C112.518 176.661 110.469 177.486 108.123 177.486H91.3312C88.9853 177.486 86.9825 176.688 85.332 175.093C83.6723 173.497 82.847 171.52 82.847 169.173V154.717H9.25302C6.90714 154.717 4.85797 153.891 3.11478 152.231C1.37159 150.579 0.5 148.575 0.5 146.227L0.5 146.237ZM36.7917 129.164H82.8285V76.8622L36.7917 129.164Z" fill="#D66600"/>
<path d="M406.459 149.79V139.046C406.459 133.748 408.323 129.053 412.059 124.952L471.726 57.1178C475.037 53.4436 479.728 51.5786 485.811 51.5137H514.064C516.53 51.5137 518.607 52.358 520.295 54.0467C521.982 55.7353 522.826 57.7487 522.826 60.0962V132.718H532.757C535.223 132.718 537.3 133.562 538.988 135.251C540.675 136.94 541.519 138.953 541.519 141.301V149.79C541.519 152.138 540.647 154.142 538.904 155.794C537.161 157.454 535.112 158.28 532.766 158.28H522.835V172.55C522.835 174.898 521.964 176.902 520.22 178.553C518.477 180.214 516.428 181.04 514.082 181.04H497.29C494.944 181.04 492.941 180.242 491.291 178.646C489.631 177.05 488.806 175.074 488.806 172.727V158.271H415.24C412.894 158.271 410.845 157.445 409.102 155.784C407.358 154.133 406.487 152.129 406.487 149.781L406.459 149.79ZM442.751 132.718H488.787V80.4159L442.751 132.718Z" fill="#D66600"/>
<path d="M268.228 124.646C275.371 124.646 281.163 118.851 281.163 111.703C281.163 104.554 275.371 98.7593 268.228 98.7593C261.084 98.7593 255.293 104.554 255.293 111.703C255.293 118.851 261.084 124.646 268.228 124.646Z" fill="#333333"/>
<path d="M272.947 111.73C274.965 111.73 276.6 110.094 276.6 108.075C276.6 106.056 274.965 104.419 272.947 104.419C270.93 104.419 269.294 106.056 269.294 108.075C269.294 110.094 270.93 111.73 272.947 111.73Z" fill="#F4F4F4"/>
<path d="M262.934 119.005C264.362 119.005 265.521 117.846 265.521 116.416C265.521 114.986 264.362 113.827 262.934 113.827C261.505 113.827 260.347 114.986 260.347 116.416C260.347 117.846 261.505 119.005 262.934 119.005Z" fill="#F4F4F4"/>
<path d="M251.223 94.9089C251.046 94.9089 250.87 94.9089 250.703 94.9089C249.683 94.8904 248.868 94.0367 248.886 93.0161C248.905 91.9955 249.795 91.1604 250.778 91.1976C256.341 91.3182 267.041 89.147 271.826 85.3522C272.623 84.712 273.791 84.8511 274.431 85.6491C275.071 86.4563 274.932 87.6161 274.134 88.2563C268.571 92.6728 257.481 94.9182 251.223 94.9182V94.9089Z" fill="#333333"/>
<path d="M305.317 124.646C312.46 124.646 318.251 118.851 318.251 111.703C318.251 104.554 312.46 98.7593 305.317 98.7593C298.173 98.7593 292.382 104.554 292.382 111.703C292.382 118.851 298.173 124.646 305.317 124.646Z" fill="#333333"/>
<path d="M322.322 94.9086C316.064 94.9086 304.974 92.6725 299.411 88.2468C298.604 87.6065 298.474 86.4467 299.114 85.6395C299.754 84.8323 300.922 84.7024 301.719 85.3426C306.504 89.1375 317.195 91.3086 322.767 91.188C322.777 91.188 322.795 91.188 322.805 91.188C323.806 91.188 324.64 91.9952 324.659 93.0066C324.678 94.0272 323.871 94.8808 322.842 94.8994C322.675 94.8994 322.498 94.8994 322.322 94.8994V94.9086Z" fill="#333333"/>
<path d="M310.611 111.73C312.629 111.73 314.265 110.094 314.265 108.075C314.265 106.056 312.629 104.419 310.611 104.419C308.594 104.419 306.958 106.056 306.958 108.075C306.958 110.094 308.594 111.73 310.611 111.73Z" fill="#F4F4F4"/>
<path d="M300.607 119.004C302.035 119.004 303.193 117.846 303.193 116.416C303.193 114.986 302.035 113.827 300.607 113.827C299.178 113.827 298.02 114.986 298.02 116.416C298.02 117.846 299.178 119.004 300.607 119.004Z" fill="#F4F4F4"/>
<path d="M279.382 138.109C279.262 138.109 279.141 138.1 279.021 138.072C278.019 137.877 277.37 136.903 277.565 135.891C278.464 131.345 282.516 128.172 287.041 128.524C290.972 128.83 294.283 131.827 295.089 135.808C295.293 136.81 294.644 137.784 293.643 137.988C292.632 138.192 291.668 137.543 291.464 136.541C290.982 134.175 289.053 132.393 286.763 132.217C284.176 132.032 281.737 133.943 281.209 136.615C281.033 137.496 280.263 138.109 279.391 138.109H279.382Z" fill="#333333"/>
</g>
<defs>
<clipPath id="clip0_1385_15279">
<rect width="541" height="229" fill="white" transform="translate(0.5)"/>
</clipPath>
</defs>
</svg>
