<svg width="24" height="24" viewBox="0 0 24 24" fill="none" xmlns="http://www.w3.org/2000/svg">
<path d="M6.29341 4.293C6.48094 4.10553 6.73524 4.00021 7.00041 4.00021C7.26557 4.00021 7.51988 4.10553 7.70741 4.293L11.7074 8.293C11.8896 8.4816 11.9904 8.7342 11.9881 8.9964C11.9858 9.2586 11.8806 9.50941 11.6952 9.69482C11.5098 9.88023 11.259 9.9854 10.9968 9.98767C10.7346 9.98995 10.482 9.88916 10.2934 9.707L8.00041 7.414V19C8.00041 19.2652 7.89505 19.5196 7.70751 19.7071C7.51998 19.8946 7.26562 20 7.00041 20C6.73519 20 6.48084 19.8946 6.2933 19.7071C6.10576 19.5196 6.00041 19.2652 6.00041 19V7.414L3.70741 9.707C3.5188 9.88916 3.2662 9.98995 3.00401 9.98767C2.74181 9.9854 2.491 9.88023 2.30559 9.69482C2.12018 9.50941 2.01501 9.2586 2.01273 8.9964C2.01045 8.7342 2.11125 8.4816 2.29341 8.293L6.29341 4.293ZM16.0004 16.586V5C16.0004 4.73478 16.1058 4.48043 16.2933 4.29289C16.4808 4.10536 16.7352 4 17.0004 4C17.2656 4 17.52 4.10536 17.7075 4.29289C17.8951 4.48043 18.0004 4.73478 18.0004 5V16.586L20.2934 14.293C20.482 14.1108 20.7346 14.01 20.9968 14.0123C21.259 14.0146 21.5098 14.1198 21.6952 14.3052C21.8806 14.4906 21.9858 14.7414 21.9881 15.0036C21.9904 15.2658 21.8896 15.5184 21.7074 15.707L17.7074 19.707C17.5199 19.8945 17.2656 19.9998 17.0004 19.9998C16.7352 19.9998 16.4809 19.8945 16.2934 19.707L12.2934 15.707C12.1112 15.5184 12.0105 15.2658 12.0127 15.0036C12.015 14.7414 12.1202 14.4906 12.3056 14.3052C12.491 14.1198 12.7418 14.0146 13.004 14.0123C13.2662 14.01 13.5188 14.1108 13.7074 14.293L16.0004 16.586Z" fill="#707E8C"/>
</svg>
